<svg version="1.1" viewBox="0.0 0.0 600.0 371.0" fill="none" stroke="none" stroke-linecap="square" stroke-miterlimit="10" width="600" height="371" xmlns:xlink="http://www.w3.org/1999/xlink" xmlns="http://www.w3.org/2000/svg"><path fill="#ffffff" d="M0 0L600.0 0L600.0 371.0L0 371.0L0 0Z" fill-rule="nonzero"/><path stroke="#333333" stroke-width="1.0" stroke-linecap="butt" d="M77.5 332.5L581.5 332.5" fill-rule="nonzero"/><path stroke="#cccccc" stroke-width="1.0" stroke-linecap="butt" d="M77.5 271.5L581.5 271.5" fill-rule="nonzero"/><path stroke="#cccccc" stroke-width="1.0" stroke-linecap="butt" d="M77.5 210.5L581.5 210.5" fill-rule="nonzero"/><path stroke="#cccccc" stroke-width="1.0" stroke-linecap="butt" d="M77.5 149.5L581.5 149.5" fill-rule="nonzero"/><path stroke="#cccccc" stroke-width="1.0" stroke-linecap="butt" d="M77.5 88.5L581.5 88.5" fill-rule="nonzero"/><clipPath id="id_0"><path d="M77.55 88.28333L581.45 88.28333L581.45 332.45L77.55 332.45L77.55 88.28333Z" clip-rule="nonzero"/></clipPath><path stroke="#000000" stroke-width="0.0" stroke-linecap="butt" stroke-opacity="0.0" clip-path="url(#id_0)" d="M178.0 332.0L130.0 332.0L130.0 317.0C130.0 315.89542 130.89543 315.0 132.0 315.0L176.0 315.0C177.10457 315.0 178.0 315.89542 178.0 317.0Z" fill-rule="nonzero"/><path fill="#4285f4" clip-path="url(#id_0)" d="M178.0 332.0L130.0 332.0L130.0 317.0C130.0 315.89542 130.89543 315.0 132.0 315.0L176.0 315.0C177.10457 315.0 178.0 315.89542 178.0 317.0Z" fill-rule="nonzero"/><path stroke="#000000" stroke-width="0.0" stroke-linecap="butt" stroke-opacity="0.0" clip-path="url(#id_0)" d="M329.0 332.0L281.0 332.0L281.0 314.0C281.0 312.89542 281.89542 312.0 283.0 312.0L327.0 312.0C328.10458 312.0 329.0 312.89542 329.0 314.0Z" fill-rule="nonzero"/><path fill="#4285f4" clip-path="url(#id_0)" d="M329.0 332.0L281.0 332.0L281.0 314.0C281.0 312.89542 281.89542 312.0 283.0 312.0L327.0 312.0C328.10458 312.0 329.0 312.89542 329.0 314.0Z" fill-rule="nonzero"/><path stroke="#000000" stroke-width="0.0" stroke-linecap="butt" stroke-opacity="0.0" clip-path="url(#id_0)" d="M479.0 332.0L431.0 332.0L431.0 318.0C431.0 316.89542 431.89542 316.0 433.0 316.0L477.0 316.0C478.10458 316.0 479.0 316.89542 479.0 318.0Z" fill-rule="nonzero"/><path fill="#4285f4" clip-path="url(#id_0)" d="M479.0 332.0L431.0 332.0L431.0 318.0C431.0 316.89542 431.89542 316.0 433.0 316.0L477.0 316.0C478.10458 316.0 479.0 316.89542 479.0 318.0Z" fill-rule="nonzero"/><path stroke="#000000" stroke-width="0.0" stroke-linecap="butt" stroke-opacity="0.0" clip-path="url(#id_0)" d="M227.0 332.0L179.0 332.0L179.0 295.0C179.0 293.89542 179.89543 293.0 181.0 293.0L225.0 293.0C226.10457 293.0 227.0 293.89542 227.0 295.0Z" fill-rule="nonzero"/><path fill="#ea4335" clip-path="url(#id_0)" d="M227.0 332.0L179.0 332.0L179.0 295.0C179.0 293.89542 179.89543 293.0 181.0 293.0L225.0 293.0C226.10457 293.0 227.0 293.89542 227.0 295.0Z" fill-rule="nonzero"/><path stroke="#000000" stroke-width="0.0" stroke-linecap="butt" stroke-opacity="0.0" clip-path="url(#id_0)" d="M378.0 332.0L330.0 332.0L330.0 243.0C330.0 241.89543 330.89542 241.0 332.0 241.0L376.0 241.0C377.10458 241.0 378.0 241.89543 378.0 243.0Z" fill-rule="nonzero"/><path fill="#ea4335" clip-path="url(#id_0)" d="M378.0 332.0L330.0 332.0L330.0 243.0C330.0 241.89543 330.89542 241.0 332.0 241.0L376.0 241.0C377.10458 241.0 378.0 241.89543 378.0 243.0Z" fill-rule="nonzero"/><path stroke="#000000" stroke-width="0.0" stroke-linecap="butt" stroke-opacity="0.0" clip-path="url(#id_0)" d="M528.0 332.0L480.0 332.0L480.0 125.0C480.0 123.89543 480.89542 123.0 482.0 123.0L526.0 123.0C527.10455 123.0 528.0 123.89543 528.0 125.0Z" fill-rule="nonzero"/><path fill="#ea4335" clip-path="url(#id_0)" d="M528.0 332.0L480.0 332.0L480.0 125.0C480.0 123.89543 480.89542 123.0 482.0 123.0L526.0 123.0C527.10455 123.0 528.0 123.89543 528.0 125.0Z" fill-rule="nonzero"/><path fill="#000000" d="M28.612513 262.27292L29.534388 262.11667Q29.628138 262.5698 29.628138 262.91354Q29.628138 263.49167 29.456263 263.80417Q29.268763 264.11667 28.971888 264.2573Q28.675013 264.3823 27.721888 264.3823L24.143763 264.3823L24.143763 265.14792L23.331263 265.14792L23.331263 264.3823L21.784388 264.3823L21.159388 263.33542L23.331263 263.33542L23.331263 262.27292L24.143763 262.27292L24.143763 263.33542L27.784388 263.33542Q28.237513 263.33542 28.362513 263.28854Q28.487513 263.22604 28.565638 263.10104Q28.643763 262.97604 28.643763 262.74167Q28.643763 262.55417 28.612513 262.27292ZM29.550013 261.5698L20.956263 261.5698L20.956263 260.52292L24.034388 260.52292Q23.190638 259.78854 23.190638 258.66354Q23.190638 257.96042 23.471888 257.46042Q23.737513 256.9448 24.221888 256.72604Q24.690638 256.5073 25.612513 256.5073L29.550013 256.5073L29.550013 257.55417L25.612513 257.55417Q24.815638 257.55417 24.456263 257.89792Q24.096888 258.24167 24.096888 258.86667Q24.096888 259.33542 24.346888 259.7573Q24.581263 260.16354 25.003138 260.35104Q25.409388 260.52292 26.143763 260.52292L29.550013 260.52292L29.550013 261.5698ZM29.550013 254.58542L23.331263 254.58542L23.331263 253.6323L24.268763 253.6323Q23.612513 253.27292 23.409388 252.97604Q23.190638 252.66354 23.190638 252.28854Q23.190638 251.7573 23.518763 251.21042L24.503138 251.5698Q24.268763 251.96042 24.268763 252.33542Q24.268763 252.6948 24.487513 252.97604Q24.690638 253.24167 25.065638 253.35104Q25.628138 253.53854 26.284388 253.53854L29.550013 253.53854L29.550013 254.58542ZM26.440638 250.96042Q24.706263 250.96042 23.878138 250.0073Q23.190638 249.21042 23.190638 248.05417Q23.190638 246.77292 24.034388 245.96042Q24.862513 245.1323 26.346888 245.1323Q27.550013 245.1323 28.237513 245.49167Q28.925013 245.85104 29.315638 246.55417Q29.690638 247.24167 29.690638 248.05417Q29.690638 249.35104 28.862513 250.16354Q28.018763 250.96042 26.440638 250.96042ZM26.440638 249.8823Q27.628138 249.8823 28.221888 249.36667Q28.815638 248.83542 28.815638 248.05417Q28.815638 247.2573 28.221888 246.74167Q27.628138 246.22604 26.409388 246.22604Q25.253138 246.22604 24.659388 246.7573Q24.065638 247.27292 24.065638 248.05417Q24.065638 248.83542 24.659388 249.36667Q25.237513 249.8823 26.440638 249.8823ZM29.550013 239.49167L28.628138 239.49167Q29.690638 240.22604 29.690638 241.47604Q29.690638 242.02292 29.487513 242.5073Q29.268763 242.97604 28.956263 243.21042Q28.628138 243.4448 28.159388 243.53854Q27.862513 243.60104 27.175013 243.60104L23.331263 243.60104L23.331263 242.53854L26.784388 242.53854Q27.596888 242.53854 27.893763 242.47604Q28.300013 242.3823 28.550013 242.0698Q28.784388 241.74167 28.784388 241.2573Q28.784388 240.78854 28.550013 240.3823Q28.300013 239.96042 27.878138 239.78854Q27.456263 239.60104 26.659388 239.60104L23.331263 239.60104L23.331263 238.55417L29.550013 238.55417L29.550013 239.49167ZM30.065638 236.77292L30.221888 235.74167Q30.690638 235.67917 30.909388 235.3823Q31.206263 234.99167 31.206263 234.3198Q31.206263 233.58542 30.909388 233.1948Q30.612513 232.78854 30.096888 232.64792Q29.768763 232.55417 28.737513 232.5698Q29.550013 233.2573 29.550013 234.28854Q29.550013 235.5698 28.628138 236.27292Q27.690638 236.97604 26.409388 236.97604Q25.518763 236.97604 24.768763 236.66354Q24.003138 236.33542 23.596888 235.72604Q23.190638 235.11667 23.190638 234.28854Q23.190638 233.17917 24.081263 232.46042L23.331263 232.46042L23.331263 231.49167L28.706263 231.49167Q30.159388 231.49167 30.768763 231.78854Q31.378138 232.08542 31.721888 232.72604Q32.08126 233.36667 32.08126 234.30417Q32.08126 235.41354 31.581263 236.10104Q31.081263 236.78854 30.065638 236.77292ZM26.331263 235.89792Q27.550013 235.89792 28.112513 235.41354Q28.675013 234.92917 28.675013 234.1948Q28.675013 233.46042 28.112513 232.97604Q27.550013 232.47604 26.362513 232.47604Q25.221888 232.47604 24.643763 232.99167Q24.065638 233.49167 24.065638 234.21042Q24.065638 234.91354 24.643763 235.41354Q25.206263 235.89792 26.331263 235.89792ZM29.550013 229.5698L20.956263 229.5698L20.956263 228.52292L24.034388 228.52292Q23.190638 227.78854 23.190638 226.66354Q23.190638 225.96042 23.471888 225.46042Q23.737513 224.9448 24.221888 224.72604Q24.690638 224.5073 25.612513 224.5073L29.550013 224.5073L29.550013 225.55417L25.612513 225.55417Q24.815638 225.55417 24.456263 225.89792Q24.096888 226.24167 24.096888 226.86667Q24.096888 227.33542 24.346888 227.7573Q24.581263 228.16354 25.003138 228.35104Q25.409388 228.52292 26.143763 228.52292L29.550013 228.52292L29.550013 229.5698ZM31.940638 222.5698L23.331263 222.5698L23.331263 221.61667L24.128138 221.61667Q23.659388 221.27292 23.425013 220.85104Q23.190638 220.41354 23.190638 219.80417Q23.190638 219.0073 23.596888 218.39792Q24.003138 217.78854 24.753138 217.49167Q25.503138 217.17917 26.393763 217.17917Q27.346888 217.17917 28.112513 217.52292Q28.878138 217.85104 29.284388 218.5073Q29.690638 219.16354 29.690638 219.8823Q29.690638 220.41354 29.471888 220.83542Q29.237513 221.2573 28.909388 221.52292L31.940638 221.52292L31.940638 222.5698ZM26.471888 221.61667Q27.675013 221.61667 28.253138 221.1323Q28.815638 220.64792 28.815638 219.96042Q28.815638 219.2573 28.221888 218.7573Q27.628138 218.2573 26.378138 218.2573Q25.190638 218.2573 24.612513 218.74167Q24.018763 219.22604 24.018763 219.91354Q24.018763 220.58542 24.643763 221.10104Q25.268763 221.61667 26.471888 221.61667ZM29.550013 211.49167L28.628138 211.49167Q29.690638 212.22604 29.690638 213.47604Q29.690638 214.02292 29.487513 214.5073Q29.268763 214.97604 28.956263 215.21042Q28.628138 215.4448 28.159388 215.53854Q27.862513 215.60104 27.175013 215.60104L23.331263 215.60104L23.331263 214.53854L26.784388 214.53854Q27.596888 214.53854 27.893763 214.47604Q28.300013 214.3823 28.550013 214.0698Q28.784388 213.74167 28.784388 213.2573Q28.784388 212.78854 28.550013 212.3823Q28.300013 211.96042 27.878138 211.78854Q27.456263 211.60104 26.659388 211.60104L23.331263 211.60104L23.331263 210.55417L29.550013 210.55417L29.550013 211.49167ZM28.612513 206.27292L29.534388 206.11667Q29.628138 206.5698 29.628138 206.91354Q29.628138 207.49167 29.456263 207.80417Q29.268763 208.11667 28.971888 208.2573Q28.675013 208.3823 27.721888 208.3823L24.143763 208.3823L24.143763 209.14792L23.331263 209.14792L23.331263 208.3823L21.784388 208.3823L21.159388 207.33542L23.331263 207.33542L23.331263 206.27292L24.143763 206.27292L24.143763 207.33542L27.784388 207.33542Q28.237513 207.33542 28.362513 207.28854Q28.487513 207.22604 28.565638 207.10104Q28.643763 206.97604 28.643763 206.74167Q28.643763 206.55417 28.612513 206.27292ZM32.08126 200.55417Q30.971888 201.42917 29.503138 202.03854Q28.018763 202.6323 26.440638 202.6323Q25.050013 202.6323 23.768763 202.1948Q22.284388 201.66354 20.815638 200.55417L20.815638 199.80417Q22.034388 200.5073 22.550013 200.74167Q23.362513 201.10104 24.237513 201.30417Q25.331263 201.55417 26.440638 201.55417Q29.268763 201.55417 32.08126 199.80417L32.08126 200.55417ZM29.550013 198.47604L20.956263 198.47604L20.956263 196.7573L27.034388 194.72604Q27.893763 194.4448 28.315638 194.3198Q27.846888 194.17917 26.940638 193.86667L20.956263 191.80417L20.956263 190.27292L29.550013 190.27292L29.550013 191.36667L22.362513 191.36667L29.550013 193.86667L29.550013 194.89792L22.237513 197.3823L29.550013 197.3823L29.550013 198.47604ZM29.550013 188.49167L20.956263 188.49167L20.956263 185.2573Q20.956263 184.27292 21.221888 183.67917Q21.487513 183.08542 22.034388 182.7573Q22.565638 182.41354 23.159388 182.41354Q23.706263 182.41354 24.190638 182.71042Q24.675013 183.0073 24.971888 183.61667Q25.206263 182.83542 25.768763 182.42917Q26.315638 182.0073 27.065638 182.0073Q27.659388 182.0073 28.190638 182.2573Q28.706263 182.5073 28.987513 182.8823Q29.268763 183.2573 29.409388 183.83542Q29.550013 184.39792 29.550013 185.21042L29.550013 188.49167ZM24.565638 187.35104L24.565638 185.49167Q24.565638 184.74167 24.471888 184.41354Q24.346888 183.97604 24.050013 183.7573Q23.737513 183.53854 23.284388 183.53854Q22.862513 183.53854 22.534388 183.74167Q22.206263 183.9448 22.096888 184.33542Q21.971888 184.71042 21.971888 185.6323L21.971888 187.35104L24.565638 187.35104ZM28.534388 187.35104L28.534388 185.21042Q28.534388 184.66354 28.487513 184.4448Q28.425013 184.03854 28.268763 183.78854Q28.096888 183.52292 27.784388 183.35104Q27.471888 183.17917 27.065638 183.17917Q26.581263 183.17917 26.221888 183.42917Q25.862513 183.66354 25.721888 184.10104Q25.581263 184.53854 25.581263 185.36667L25.581263 187.35104L28.534388 187.35104ZM29.690638 181.36667L20.815638 178.8823L20.815638 178.03854L29.690638 180.52292L29.690638 181.36667ZM27.690638 177.99167L27.534388 176.96042Q28.159388 176.86667 28.487513 176.47604Q28.815638 176.0698 28.815638 175.33542Q28.815638 174.61667 28.534388 174.27292Q28.237513 173.91354 27.831263 173.91354Q27.471888 173.91354 27.268763 174.22604Q27.128138 174.4448 26.909388 175.30417Q26.612513 176.46042 26.409388 176.91354Q26.190638 177.35104 25.815638 177.58542Q25.440638 177.8198 24.971888 177.8198Q24.565638 177.8198 24.206263 177.6323Q23.846888 177.4448 23.612513 177.11667Q23.440638 176.86667 23.315638 176.4448Q23.190638 176.02292 23.190638 175.52292Q23.190638 174.80417 23.409388 174.2573Q23.612513 173.6948 23.971888 173.42917Q24.331263 173.16354 24.925013 173.0698L25.065638 174.10104Q24.596888 174.16354 24.331263 174.5073Q24.050013 174.83542 24.050013 175.46042Q24.050013 176.17917 24.300013 176.49167Q24.534388 176.80417 24.862513 176.80417Q25.065638 176.80417 25.221888 176.67917Q25.393763 176.53854 25.503138 176.27292Q25.565638 176.11667 25.768763 175.33542Q26.081263 174.21042 26.268763 173.77292Q26.456263 173.33542 26.815638 173.08542Q27.175013 172.83542 27.721888 172.83542Q28.253138 172.83542 28.721888 173.14792Q29.175013 173.4448 29.440638 174.02292Q29.690638 174.60104 29.690638 175.33542Q29.690638 176.55417 29.190638 177.1948Q28.675013 177.8198 27.690638 177.99167ZM32.08126 170.8823L32.08126 171.6323Q29.268763 169.8823 26.440638 169.8823Q25.346888 169.8823 24.253138 170.1323Q23.378138 170.33542 22.565638 170.6948Q22.050013 170.92917 20.815638 171.6323L20.815638 170.8823Q22.284388 169.78854 23.768763 169.2573Q25.050013 168.80417 26.440638 168.80417Q28.018763 168.80417 29.503138 169.41354Q30.971888 170.02292 32.08126 170.8823Z" fill-rule="nonzero"/><path fill="#000000" d="M65.05 332.21564Q65.05 330.6844 65.3625 329.7625Q65.675 328.825 66.28438 328.325Q66.90938 327.825 67.84688 327.825Q68.53438 327.825 69.05 328.10626Q69.58125 328.3875 69.925 328.91876Q70.26875 329.4344 70.45625 330.1844Q70.64375 330.9344 70.64375 332.21564Q70.64375 333.73126 70.33125 334.65314Q70.03438 335.575 69.40938 336.09064Q68.8 336.59064 67.84688 336.59064Q66.6125 336.59064 65.89375 335.7Q65.05 334.6375 65.05 332.21564ZM66.12813 332.21564Q66.12813 334.325 66.62813 335.02814Q67.12813 335.73126 67.84688 335.73126Q68.58125 335.73126 69.06563 335.02814Q69.56563 334.325 69.56563 332.21564Q69.56563 330.09064 69.06563 329.40314Q68.58125 328.7 67.83125 328.7Q67.1125 328.7 66.675 329.3094Q66.12813 330.09064 66.12813 332.21564Z" fill-rule="nonzero"/><path fill="#000000" d="M63.596874 274.3927L63.596874 275.40833L57.909374 275.40833Q57.909374 275.03333 58.034374 274.67395Q58.253124 274.09583 58.721874 273.53333Q59.20625 272.97083 60.1125 272.23645Q61.51875 271.0802 62.003124 270.40833Q62.503124 269.73645 62.503124 269.1427Q62.503124 268.5177 62.05 268.09583Q61.596874 267.65833 60.878124 267.65833Q60.1125 267.65833 59.659374 268.11145Q59.20625 268.56458 59.190624 269.37708L58.1125 269.2677Q58.221874 268.04895 58.940624 267.42395Q59.675 266.78333 60.909374 266.78333Q62.14375 266.78333 62.8625 267.47083Q63.58125 268.15833 63.58125 269.17395Q63.58125 269.68958 63.3625 270.18958Q63.159374 270.67395 62.659374 271.23645Q62.175 271.78333 61.05 272.73645Q60.096874 273.53333 59.815624 273.8302Q59.55 274.11145 59.378124 274.3927L63.596874 274.3927ZM65.05 271.17395Q65.05 269.6427 65.3625 268.72083Q65.675 267.78333 66.28438 267.28333Q66.90938 266.78333 67.84688 266.78333Q68.53438 266.78333 69.05 267.06458Q69.58125 267.34583 69.925 267.87708Q70.26875 268.3927 70.45625 269.1427Q70.64375 269.8927 70.64375 271.17395Q70.64375 272.68958 70.33125 273.61145Q70.03438 274.53333 69.40938 275.04895Q68.8 275.54895 67.84688 275.54895Q66.6125 275.54895 65.89375 274.65833Q65.05 273.59583 65.05 271.17395ZM66.12813 271.17395Q66.12813 273.28333 66.62813 273.98645Q67.12813 274.68958 67.84688 274.68958Q68.58125 274.68958 69.06563 273.98645Q69.56563 273.28333 69.56563 271.17395Q69.56563 269.04895 69.06563 268.36145Q68.58125 267.65833 67.83125 267.65833Q67.1125 267.65833 66.675 268.2677Q66.12813 269.04895 66.12813 271.17395Z" fill-rule="nonzero"/><path fill="#000000" d="M61.425 214.36667L61.425 212.30417L57.70625 212.30417L57.70625 211.33542L61.628124 205.77292L62.4875 205.77292L62.4875 211.33542L63.64375 211.33542L63.64375 212.30417L62.4875 212.30417L62.4875 214.36667L61.425 214.36667ZM61.425 211.33542L61.425 207.47604L58.7375 211.33542L61.425 211.33542ZM65.05 210.1323Q65.05 208.60104 65.3625 207.67917Q65.675 206.74167 66.28438 206.24167Q66.90938 205.74167 67.84688 205.74167Q68.53438 205.74167 69.05 206.02292Q69.58125 206.30417 69.925 206.83542Q70.26875 207.35104 70.45625 208.10104Q70.64375 208.85104 70.64375 210.1323Q70.64375 211.64792 70.33125 212.5698Q70.03438 213.49167 69.40938 214.0073Q68.8 214.5073 67.84688 214.5073Q66.6125 214.5073 65.89375 213.61667Q65.05 212.55417 65.05 210.1323ZM66.12813 210.1323Q66.12813 212.24167 66.62813 212.9448Q67.12813 213.64792 67.84688 213.64792Q68.58125 213.64792 69.06563 212.9448Q69.56563 212.24167 69.56563 210.1323Q69.56563 208.0073 69.06563 207.3198Q68.58125 206.61667 67.83125 206.61667Q67.1125 206.61667 66.675 207.22604Q66.12813 208.0073 66.12813 210.1323Z" fill-rule="nonzero"/><path fill="#000000" d="M63.51875 146.84062L62.471874 146.91875Q62.33125 146.29375 62.08125 146.0125Q61.64375 145.55937 61.01875 145.55937Q60.51875 145.55937 60.128124 145.84062Q59.64375 146.21562 59.346874 146.91875Q59.065624 147.60625 59.05 148.8875Q59.425 148.30937 59.971874 148.02812Q60.534374 147.74687 61.14375 147.74687Q62.190624 147.74687 62.925 148.52812Q63.675 149.30937 63.675 150.52812Q63.675 151.34062 63.315624 152.04375Q62.971874 152.73125 62.3625 153.10625Q61.753124 153.46562 60.9875 153.46562Q59.659374 153.46562 58.83125 152.49687Q58.003124 151.52812 58.003124 149.30937Q58.003124 146.80937 58.925 145.68437Q59.721874 144.7 61.08125 144.7Q62.096874 144.7 62.7375 145.27812Q63.39375 145.84062 63.51875 146.84062ZM59.221874 150.54375Q59.221874 151.09062 59.440624 151.59062Q59.675 152.075 60.08125 152.34062Q60.503124 152.60625 60.971874 152.60625Q61.628124 152.60625 62.1125 152.075Q62.596874 151.52812 62.596874 150.60625Q62.596874 149.71562 62.1125 149.2Q61.64375 148.68437 60.925 148.68437Q60.20625 148.68437 59.70625 149.2Q59.221874 149.71562 59.221874 150.54375ZM65.05 149.09062Q65.05 147.55937 65.3625 146.6375Q65.675 145.7 66.28438 145.2Q66.90938 144.7 67.84688 144.7Q68.53438 144.7 69.05 144.98125Q69.58125 145.2625 69.925 145.79375Q70.26875 146.30937 70.45625 147.05937Q70.64375 147.80937 70.64375 149.09062Q70.64375 150.60625 70.33125 151.52812Q70.03438 152.45 69.40938 152.96562Q68.8 153.46562 67.84688 153.46562Q66.6125 153.46562 65.89375 152.575Q65.05 151.5125 65.05 149.09062ZM66.12813 149.09062Q66.12813 151.2 66.62813 151.90312Q67.12813 152.60625 67.84688 152.60625Q68.58125 152.60625 69.06563 151.90312Q69.56563 151.2 69.56563 149.09062Q69.56563 146.96562 69.06563 146.27812Q68.58125 145.575 67.83125 145.575Q67.1125 145.575 66.675 146.18437Q66.12813 146.96562 66.12813 149.09062Z" fill-rule="nonzero"/><path fill="#000000" d="M59.675 87.62708Q59.01875 87.37708 58.690624 86.93958Q58.378124 86.48646 58.378124 85.87708Q58.378124 84.93958 59.05 84.29896Q59.7375 83.65833 60.846874 83.65833Q61.971874 83.65833 62.659374 84.31458Q63.346874 84.97083 63.346874 85.90833Q63.346874 86.50208 63.034374 86.93958Q62.721874 87.37708 62.08125 87.62708Q62.878124 87.87708 63.284374 88.45521Q63.690624 89.03333 63.690624 89.83021Q63.690624 90.92396 62.909374 91.67396Q62.14375 92.42396 60.8625 92.42396Q59.596874 92.42396 58.815624 91.67396Q58.034374 90.92396 58.034374 89.79896Q58.034374 88.95521 58.45625 88.39271Q58.89375 87.83021 59.675 87.62708ZM59.45625 85.83021Q59.45625 86.43958 59.846874 86.83021Q60.253124 87.22083 60.878124 87.22083Q61.4875 87.22083 61.878124 86.84583Q62.26875 86.45521 62.26875 85.89271Q62.26875 85.31458 61.8625 84.92396Q61.45625 84.51771 60.8625 84.51771Q60.253124 84.51771 59.846874 84.90833Q59.45625 85.29896 59.45625 85.83021ZM59.128124 89.79896Q59.128124 90.25208 59.33125 90.67396Q59.55 91.09583 59.971874 91.33021Q60.39375 91.56458 60.878124 91.56458Q61.628124 91.56458 62.1125 91.08021Q62.6125 90.59583 62.6125 89.84583Q62.6125 89.08021 62.1125 88.58021Q61.6125 88.08021 60.846874 88.08021Q60.096874 88.08021 59.6125 88.58021Q59.128124 89.06458 59.128124 89.79896ZM65.05 88.04896Q65.05 86.51771 65.3625 85.59583Q65.675 84.65833 66.28438 84.15833Q66.90938 83.65833 67.84688 83.65833Q68.53438 83.65833 69.05 83.93958Q69.58125 84.22083 69.925 84.75208Q70.26875 85.26771 70.45625 86.01771Q70.64375 86.76771 70.64375 88.04896Q70.64375 89.56458 70.33125 90.48646Q70.03438 91.40833 69.40938 91.92396Q68.8 92.42396 67.84688 92.42396Q66.6125 92.42396 65.89375 91.53333Q65.05 90.47083 65.05 88.04896ZM66.12813 88.04896Q66.12813 90.15833 66.62813 90.86146Q67.12813 91.56458 67.84688 91.56458Q68.58125 91.56458 69.06563 90.86146Q69.56563 90.15833 69.56563 88.04896Q69.56563 85.92396 69.06563 85.23646Q68.58125 84.53333 67.83125 84.53333Q67.1125 84.53333 66.675 85.14271Q66.12813 85.92396 66.12813 88.04896Z" fill-rule="nonzero"/><path fill="#000000" d="M135.51959 349.45L133.61334 343.23126L134.70709 343.23126L135.69147 346.825L136.06647 348.15314Q136.09772 348.0594 136.39459 346.8719L137.37897 343.23126L138.45709 343.23126L139.39459 346.84064L139.70709 348.02814L140.06647 346.825L141.12897 343.23126L142.16022 343.23126L140.20709 349.45L139.11334 349.45L138.12897 345.71564L137.87897 344.66876L136.62897 349.45L135.51959 349.45ZM143.36334 349.45L143.36334 343.23126L144.31647 343.23126L144.31647 344.16876Q144.67584 343.5125 144.97272 343.3094Q145.28522 343.09064 145.66022 343.09064Q146.19147 343.09064 146.73834 343.41876L146.37897 344.40314Q145.98834 344.16876 145.61334 344.16876Q145.25397 344.16876 144.97272 344.3875Q144.70709 344.59064 144.59772 344.96564Q144.41022 345.52814 144.41022 346.1844L144.41022 349.45L143.36334 349.45ZM147.37897 349.45L147.37897 340.85626L148.44147 340.85626L148.44147 345.7625L150.92584 343.23126L152.30084 343.23126L149.91022 345.52814L152.53522 349.45L151.23834 349.45L149.17584 346.2625L148.44147 346.98126L148.44147 349.45L147.37897 349.45ZM155.95709 346.8719L155.95709 345.8094L159.20709 345.8094L159.20709 346.8719L155.95709 346.8719ZM162.67584 348.5125L162.83209 349.4344Q162.37897 349.52814 162.03522 349.52814Q161.45709 349.52814 161.14459 349.35626Q160.83209 349.16876 160.69147 348.8719Q160.56647 348.575 160.56647 347.6219L160.56647 344.04376L159.80084 344.04376L159.80084 343.23126L160.56647 343.23126L160.56647 341.6844L161.61334 341.0594L161.61334 343.23126L162.67584 343.23126L162.67584 344.04376L161.61334 344.04376L161.61334 347.6844Q161.61334 348.1375 161.66022 348.2625Q161.72272 348.3875 161.84772 348.46564Q161.97272 348.54376 162.20709 348.54376Q162.39459 348.54376 162.67584 348.5125ZM167.05084 349.45L166.00397 349.45L166.00397 342.73126Q165.61334 343.09064 164.98834 343.46564Q164.37897 343.825 163.89459 343.9969L163.89459 342.98126Q164.76959 342.5594 165.42584 341.98126Q166.09772 341.3875 166.37897 340.825L167.05084 340.825L167.05084 349.45ZM172.95709 346.8719L172.95709 345.8094L176.20709 345.8094L176.20709 346.8719L172.95709 346.8719ZM181.44147 347.16876L182.47272 347.3094Q182.30084 348.3719 181.59772 348.98126Q180.89459 349.59064 179.87897 349.59064Q178.59772 349.59064 177.81647 348.7625Q177.05084 347.91876 177.05084 346.35626Q177.05084 345.35626 177.37897 344.60626Q177.72272 343.84064 178.39459 343.46564Q179.08209 343.09064 179.89459 343.09064Q180.89459 343.09064 181.53522 343.60626Q182.19147 344.10626 182.37897 345.0594L181.34772 345.21564Q181.20709 344.59064 180.83209 344.27814Q180.45709 343.95 179.92584 343.95Q179.12897 343.95 178.62897 344.52814Q178.12897 345.09064 178.12897 346.325Q178.12897 347.59064 178.61334 348.15314Q179.09772 348.71564 179.86334 348.71564Q180.48834 348.71564 180.89459 348.34064Q181.31647 347.96564 181.44147 347.16876ZM183.08209 347.2L184.19147 347.10626Q184.31647 347.91876 184.75397 348.325Q185.20709 348.73126 185.84772 348.73126Q186.59772 348.73126 187.12897 348.15314Q187.66022 347.575 187.66022 346.6375Q187.66022 345.73126 187.14459 345.21564Q186.64459 344.6844 185.81647 344.6844Q185.31647 344.6844 184.89459 344.91876Q184.48834 345.15314 184.25397 345.5125L183.26959 345.3875L184.09772 340.98126L188.37897 340.98126L188.37897 341.98126L184.94147 341.98126L184.48834 344.29376Q185.25397 343.7469 186.09772 343.7469Q187.22272 343.7469 187.98834 344.52814Q188.76959 345.3094 188.76959 346.54376Q188.76959 347.7 188.09772 348.5594Q187.26959 349.59064 185.84772 349.59064Q184.67584 349.59064 183.92584 348.9344Q183.19147 348.27814 183.08209 347.2ZM190.08209 345.21564Q190.08209 343.6844 190.39459 342.7625Q190.70709 341.825 191.31647 341.325Q191.94147 340.825 192.87897 340.825Q193.56647 340.825 194.08209 341.10626Q194.61334 341.3875 194.95709 341.91876Q195.30084 342.4344 195.48834 343.1844Q195.67584 343.9344 195.67584 345.21564Q195.67584 346.73126 195.36334 347.65314Q195.06647 348.575 194.44147 349.09064Q193.83209 349.59064 192.87897 349.59064Q191.64459 349.59064 190.92584 348.7Q190.08209 347.6375 190.08209 345.21564ZM191.16022 345.21564Q191.16022 347.325 191.66022 348.02814Q192.16022 348.73126 192.87897 348.73126Q193.61334 348.73126 194.09772 348.02814Q194.59772 347.325 194.59772 345.21564Q194.59772 343.09064 194.09772 342.40314Q193.61334 341.7 192.86334 341.7Q192.14459 341.7 191.70709 342.3094Q191.16022 343.09064 191.16022 345.21564ZM199.95709 346.8719L199.95709 345.8094L203.20709 345.8094L203.20709 346.8719L199.95709 346.8719ZM208.41022 349.45L208.41022 348.66876Q207.81647 349.59064 206.67584 349.59064Q205.92584 349.59064 205.30084 349.1844Q204.67584 348.7625 204.33209 348.02814Q203.98834 347.29376 203.98834 346.34064Q203.98834 345.41876 204.30084 344.65314Q204.61334 343.8875 205.23834 343.4969Q205.86334 343.09064 206.62897 343.09064Q207.19147 343.09064 207.62897 343.325Q208.06647 343.5594 208.34772 343.9344L208.34772 340.85626L209.39459 340.85626L209.39459 349.45L208.41022 349.45ZM205.08209 346.34064Q205.08209 347.54376 205.58209 348.1375Q206.08209 348.71564 206.76959 348.71564Q207.45709 348.71564 207.94147 348.15314Q208.42584 347.59064 208.42584 346.4344Q208.42584 345.15314 207.92584 344.5594Q207.44147 343.96564 206.72272 343.96564Q206.01959 343.96564 205.55084 344.54376Q205.08209 345.10626 205.08209 346.34064ZM215.05084 349.45L214.00397 349.45L214.00397 342.73126Q213.61334 343.09064 212.98834 343.46564Q212.37897 343.825 211.89459 343.9969L211.89459 342.98126Q212.76959 342.5594 213.42584 341.98126Q214.09772 341.3875 214.37897 340.825L215.05084 340.825L215.05084 349.45ZM218.08209 345.21564Q218.08209 343.6844 218.39459 342.7625Q218.70709 341.825 219.31647 341.325Q219.94147 340.825 220.87897 340.825Q221.56647 340.825 222.08209 341.10626Q222.61334 341.3875 222.95709 341.91876Q223.30084 342.4344 223.48834 343.1844Q223.67584 343.9344 223.67584 345.21564Q223.67584 346.73126 223.36334 347.65314Q223.06647 348.575 222.44147 349.09064Q221.83209 349.59064 220.87897 349.59064Q219.64459 349.59064 218.92584 348.7Q218.08209 347.6375 218.08209 345.21564ZM219.16022 345.21564Q219.16022 347.325 219.66022 348.02814Q220.16022 348.73126 220.87897 348.73126Q221.61334 348.73126 222.09772 348.02814Q222.59772 347.325 222.59772 345.21564Q222.59772 343.09064 222.09772 342.40314Q221.61334 341.7 220.86334 341.7Q220.14459 341.7 219.70709 342.3094Q219.16022 343.09064 219.16022 345.21564Z" fill-rule="nonzero"/><path fill="#000000" d="M282.4375 349.45L280.53125 343.23126L281.625 343.23126L282.60938 346.825L282.98438 348.15314Q283.01562 348.0594 283.3125 346.8719L284.29688 343.23126L285.375 343.23126L286.3125 346.84064L286.625 348.02814L286.98438 346.825L288.04688 343.23126L289.07812 343.23126L287.125 349.45L286.03125 349.45L285.04688 345.71564L284.79688 344.66876L283.54688 349.45L282.4375 349.45ZM290.28125 349.45L290.28125 343.23126L291.23438 343.23126L291.23438 344.16876Q291.59375 343.5125 291.89062 343.3094Q292.20312 343.09064 292.57812 343.09064Q293.10938 343.09064 293.65625 343.41876L293.29688 344.40314Q292.90625 344.16876 292.53125 344.16876Q292.17188 344.16876 291.89062 344.3875Q291.625 344.59064 291.51562 344.96564Q291.32812 345.52814 291.32812 346.1844L291.32812 349.45L290.28125 349.45ZM294.29688 349.45L294.29688 340.85626L295.35938 340.85626L295.35938 345.7625L297.84375 343.23126L299.21875 343.23126L296.82812 345.52814L299.45312 349.45L298.15625 349.45L296.09375 346.2625L295.35938 346.98126L295.35938 349.45L294.29688 349.45ZM302.875 346.8719L302.875 345.8094L306.125 345.8094L306.125 346.8719L302.875 346.8719ZM309.59375 348.5125L309.75 349.4344Q309.29688 349.52814 308.95312 349.52814Q308.375 349.52814 308.0625 349.35626Q307.75 349.16876 307.60938 348.8719Q307.48438 348.575 307.48438 347.6219L307.48438 344.04376L306.71875 344.04376L306.71875 343.23126L307.48438 343.23126L307.48438 341.6844L308.53125 341.0594L308.53125 343.23126L309.59375 343.23126L309.59375 344.04376L308.53125 344.04376L308.53125 347.6844Q308.53125 348.1375 308.57812 348.2625Q308.64062 348.3875 308.76562 348.46564Q308.89062 348.54376 309.125 348.54376Q309.3125 348.54376 309.59375 348.5125ZM313.96875 349.45L312.92188 349.45L312.92188 342.73126Q312.53125 343.09064 311.90625 343.46564Q311.29688 343.825 310.8125 343.9969L310.8125 342.98126Q311.6875 342.5594 312.34375 341.98126Q313.01562 341.3875 313.29688 340.825L313.96875 340.825L313.96875 349.45ZM317.0 345.21564Q317.0 343.6844 317.3125 342.7625Q317.625 341.825 318.23438 341.325Q318.85938 340.825 319.79688 340.825Q320.48438 340.825 321.0 341.10626Q321.53125 341.3875 321.875 341.91876Q322.21875 342.4344 322.40625 343.1844Q322.59375 343.9344 322.59375 345.21564Q322.59375 346.73126 322.28125 347.65314Q321.98438 348.575 321.35938 349.09064Q320.75 349.59064 319.79688 349.59064Q318.5625 349.59064 317.84375 348.7Q317.0 347.6375 317.0 345.21564ZM318.07812 345.21564Q318.07812 347.325 318.57812 348.02814Q319.07812 348.73126 319.79688 348.73126Q320.53125 348.73126 321.01562 348.02814Q321.51562 347.325 321.51562 345.21564Q321.51562 343.09064 321.01562 342.40314Q320.53125 341.7 319.78125 341.7Q319.0625 341.7 318.625 342.3094Q318.07812 343.09064 318.07812 345.21564ZM326.875 346.8719L326.875 345.8094L330.125 345.8094L330.125 346.8719L326.875 346.8719ZM335.35938 347.16876L336.39062 347.3094Q336.21875 348.3719 335.51562 348.98126Q334.8125 349.59064 333.79688 349.59064Q332.51562 349.59064 331.73438 348.7625Q330.96875 347.91876 330.96875 346.35626Q330.96875 345.35626 331.29688 344.60626Q331.64062 343.84064 332.3125 343.46564Q333.0 343.09064 333.8125 343.09064Q334.8125 343.09064 335.45312 343.60626Q336.10938 344.10626 336.29688 345.0594L335.26562 345.21564Q335.125 344.59064 334.75 344.27814Q334.375 343.95 333.84375 343.95Q333.04688 343.95 332.54688 344.52814Q332.04688 345.09064 332.04688 346.325Q332.04688 347.59064 332.53125 348.15314Q333.01562 348.71564 333.78125 348.71564Q334.40625 348.71564 334.8125 348.34064Q335.23438 347.96564 335.35938 347.16876ZM337.0 347.2L338.10938 347.10626Q338.23438 347.91876 338.67188 348.325Q339.125 348.73126 339.76562 348.73126Q340.51562 348.73126 341.04688 348.15314Q341.57812 347.575 341.57812 346.6375Q341.57812 345.73126 341.0625 345.21564Q340.5625 344.6844 339.73438 344.6844Q339.23438 344.6844 338.8125 344.91876Q338.40625 345.15314 338.17188 345.5125L337.1875 345.3875L338.01562 340.98126L342.29688 340.98126L342.29688 341.98126L338.85938 341.98126L338.40625 344.29376Q339.17188 343.7469 340.01562 343.7469Q341.14062 343.7469 341.90625 344.52814Q342.6875 345.3094 342.6875 346.54376Q342.6875 347.7 342.01562 348.5594Q341.1875 349.59064 339.76562 349.59064Q338.59375 349.59064 337.84375 348.9344Q337.10938 348.27814 337.0 347.2ZM344.0 345.21564Q344.0 343.6844 344.3125 342.7625Q344.625 341.825 345.23438 341.325Q345.85938 340.825 346.79688 340.825Q347.48438 340.825 348.0 341.10626Q348.53125 341.3875 348.875 341.91876Q349.21875 342.4344 349.40625 343.1844Q349.59375 343.9344 349.59375 345.21564Q349.59375 346.73126 349.28125 347.65314Q348.98438 348.575 348.35938 349.09064Q347.75 349.59064 346.79688 349.59064Q345.5625 349.59064 344.84375 348.7Q344.0 347.6375 344.0 345.21564ZM345.07812 345.21564Q345.07812 347.325 345.57812 348.02814Q346.07812 348.73126 346.79688 348.73126Q347.53125 348.73126 348.01562 348.02814Q348.51562 347.325 348.51562 345.21564Q348.51562 343.09064 348.01562 342.40314Q347.53125 341.7 346.78125 341.7Q346.0625 341.7 345.625 342.3094Q345.07812 343.09064 345.07812 345.21564ZM353.875 346.8719L353.875 345.8094L357.125 345.8094L357.125 346.8719L353.875 346.8719ZM362.32812 349.45L362.32812 348.66876Q361.73438 349.59064 360.59375 349.59064Q359.84375 349.59064 359.21875 349.1844Q358.59375 348.7625 358.25 348.02814Q357.90625 347.29376 357.90625 346.34064Q357.90625 345.41876 358.21875 344.65314Q358.53125 343.8875 359.15625 343.4969Q359.78125 343.09064 360.54688 343.09064Q361.10938 343.09064 361.54688 343.325Q361.98438 343.5594 362.26562 343.9344L362.26562 340.85626L363.3125 340.85626L363.3125 349.45L362.32812 349.45ZM359.0 346.34064Q359.0 347.54376 359.5 348.1375Q360.0 348.71564 360.6875 348.71564Q361.375 348.71564 361.85938 348.15314Q362.34375 347.59064 362.34375 346.4344Q362.34375 345.15314 361.84375 344.5594Q361.35938 343.96564 360.64062 343.96564Q359.9375 343.96564 359.46875 344.54376Q359.0 345.10626 359.0 346.34064ZM368.96875 349.45L367.92188 349.45L367.92188 342.73126Q367.53125 343.09064 366.90625 343.46564Q366.29688 343.825 365.8125 343.9969L365.8125 342.98126Q366.6875 342.5594 367.34375 341.98126Q368.01562 341.3875 368.29688 340.825L368.96875 340.825L368.96875 349.45ZM372.0 345.21564Q372.0 343.6844 372.3125 342.7625Q372.625 341.825 373.23438 341.325Q373.85938 340.825 374.79688 340.825Q375.48438 340.825 376.0 341.10626Q376.53125 341.3875 376.875 341.91876Q377.21875 342.4344 377.40625 343.1844Q377.59375 343.9344 377.59375 345.21564Q377.59375 346.73126 377.28125 347.65314Q376.98438 348.575 376.35938 349.09064Q375.75 349.59064 374.79688 349.59064Q373.5625 349.59064 372.84375 348.7Q372.0 347.6375 372.0 345.21564ZM373.07812 345.21564Q373.07812 347.325 373.57812 348.02814Q374.07812 348.73126 374.79688 348.73126Q375.53125 348.73126 376.01562 348.02814Q376.51562 347.325 376.51562 345.21564Q376.51562 343.09064 376.01562 342.40314Q375.53125 341.7 374.78125 341.7Q374.0625 341.7 373.625 342.3094Q373.07812 343.09064 373.07812 345.21564Z" fill-rule="nonzero"/><path fill="#000000" d="M429.3554 349.45L427.44916 343.23126L428.5429 343.23126L429.52728 346.825L429.90228 348.15314Q429.93353 348.0594 430.2304 346.8719L431.21478 343.23126L432.2929 343.23126L433.2304 346.84064L433.5429 348.02814L433.90228 346.825L434.96478 343.23126L435.99603 343.23126L434.0429 349.45L432.94916 349.45L431.96478 345.71564L431.71478 344.66876L430.46478 349.45L429.3554 349.45ZM437.19916 349.45L437.19916 343.23126L438.15228 343.23126L438.15228 344.16876Q438.51166 343.5125 438.80853 343.3094Q439.12103 343.09064 439.49603 343.09064Q440.02728 343.09064 440.57416 343.41876L440.21478 344.40314Q439.82416 344.16876 439.44916 344.16876Q439.08978 344.16876 438.80853 344.3875Q438.5429 344.59064 438.43353 344.96564Q438.24603 345.52814 438.24603 346.1844L438.24603 349.45L437.19916 349.45ZM441.21478 349.45L441.21478 340.85626L442.27728 340.85626L442.27728 345.7625L444.76166 343.23126L446.13666 343.23126L443.74603 345.52814L446.37103 349.45L445.07416 349.45L443.01166 346.2625L442.27728 346.98126L442.27728 349.45L441.21478 349.45ZM449.7929 346.8719L449.7929 345.8094L453.0429 345.8094L453.0429 346.8719L449.7929 346.8719ZM456.51166 348.5125L456.6679 349.4344Q456.21478 349.52814 455.87103 349.52814Q455.2929 349.52814 454.9804 349.35626Q454.6679 349.16876 454.52728 348.8719Q454.40228 348.575 454.40228 347.6219L454.40228 344.04376L453.63666 344.04376L453.63666 343.23126L454.40228 343.23126L454.40228 341.6844L455.44916 341.0594L455.44916 343.23126L456.51166 343.23126L456.51166 344.04376L455.44916 344.04376L455.44916 347.6844Q455.44916 348.1375 455.49603 348.2625Q455.55853 348.3875 455.68353 348.46564Q455.80853 348.54376 456.0429 348.54376Q456.2304 348.54376 456.51166 348.5125ZM460.88666 349.45L459.83978 349.45L459.83978 342.73126Q459.44916 343.09064 458.82416 343.46564Q458.21478 343.825 457.7304 343.9969L457.7304 342.98126Q458.6054 342.5594 459.26166 341.98126Q459.93353 341.3875 460.21478 340.825L460.88666 340.825L460.88666 349.45ZM463.9179 345.21564Q463.9179 343.6844 464.2304 342.7625Q464.5429 341.825 465.15228 341.325Q465.77728 340.825 466.71478 340.825Q467.40228 340.825 467.9179 341.10626Q468.44916 341.3875 468.7929 341.91876Q469.13666 342.4344 469.32416 343.1844Q469.51166 343.9344 469.51166 345.21564Q469.51166 346.73126 469.19916 347.65314Q468.90228 348.575 468.27728 349.09064Q467.6679 349.59064 466.71478 349.59064Q465.4804 349.59064 464.76166 348.7Q463.9179 347.6375 463.9179 345.21564ZM464.99603 345.21564Q464.99603 347.325 465.49603 348.02814Q465.99603 348.73126 466.71478 348.73126Q467.44916 348.73126 467.93353 348.02814Q468.43353 347.325 468.43353 345.21564Q468.43353 343.09064 467.93353 342.40314Q467.44916 341.7 466.69916 341.7Q465.9804 341.7 465.5429 342.3094Q464.99603 343.09064 464.99603 345.21564ZM473.7929 346.8719L473.7929 345.8094L477.0429 345.8094L477.0429 346.8719L473.7929 346.8719ZM482.27728 347.16876L483.30853 347.3094Q483.13666 348.3719 482.43353 348.98126Q481.7304 349.59064 480.71478 349.59064Q479.43353 349.59064 478.65228 348.7625Q477.88666 347.91876 477.88666 346.35626Q477.88666 345.35626 478.21478 344.60626Q478.55853 343.84064 479.2304 343.46564Q479.9179 343.09064 480.7304 343.09064Q481.7304 343.09064 482.37103 343.60626Q483.02728 344.10626 483.21478 345.0594L482.18353 345.21564Q482.0429 344.59064 481.6679 344.27814Q481.2929 343.95 480.76166 343.95Q479.96478 343.95 479.46478 344.52814Q478.96478 345.09064 478.96478 346.325Q478.96478 347.59064 479.44916 348.15314Q479.93353 348.71564 480.69916 348.71564Q481.32416 348.71564 481.7304 348.34064Q482.15228 347.96564 482.27728 347.16876ZM483.9179 347.2L485.02728 347.10626Q485.15228 347.91876 485.58978 348.325Q486.0429 348.73126 486.68353 348.73126Q487.43353 348.73126 487.96478 348.15314Q488.49603 347.575 488.49603 346.6375Q488.49603 345.73126 487.9804 345.21564Q487.4804 344.6844 486.65228 344.6844Q486.15228 344.6844 485.7304 344.91876Q485.32416 345.15314 485.08978 345.5125L484.1054 345.3875L484.93353 340.98126L489.21478 340.98126L489.21478 341.98126L485.77728 341.98126L485.32416 344.29376Q486.08978 343.7469 486.93353 343.7469Q488.05853 343.7469 488.82416 344.52814Q489.6054 345.3094 489.6054 346.54376Q489.6054 347.7 488.93353 348.5594Q488.1054 349.59064 486.68353 349.59064Q485.51166 349.59064 484.76166 348.9344Q484.02728 348.27814 483.9179 347.2ZM490.9179 345.21564Q490.9179 343.6844 491.2304 342.7625Q491.5429 341.825 492.15228 341.325Q492.77728 340.825 493.71478 340.825Q494.40228 340.825 494.9179 341.10626Q495.44916 341.3875 495.7929 341.91876Q496.13666 342.4344 496.32416 343.1844Q496.51166 343.9344 496.51166 345.21564Q496.51166 346.73126 496.19916 347.65314Q495.90228 348.575 495.27728 349.09064Q494.6679 349.59064 493.71478 349.59064Q492.4804 349.59064 491.76166 348.7Q490.9179 347.6375 490.9179 345.21564ZM491.99603 345.21564Q491.99603 347.325 492.49603 348.02814Q492.99603 348.73126 493.71478 348.73126Q494.44916 348.73126 494.93353 348.02814Q495.43353 347.325 495.43353 345.21564Q495.43353 343.09064 494.93353 342.40314Q494.44916 341.7 493.69916 341.7Q492.9804 341.7 492.5429 342.3094Q491.99603 343.09064 491.99603 345.21564ZM497.9179 345.21564Q497.9179 343.6844 498.2304 342.7625Q498.5429 341.825 499.15228 341.325Q499.77728 340.825 500.71478 340.825Q501.40228 340.825 501.9179 341.10626Q502.44916 341.3875 502.7929 341.91876Q503.13666 342.4344 503.32416 343.1844Q503.51166 343.9344 503.51166 345.21564Q503.51166 346.73126 503.19916 347.65314Q502.90228 348.575 502.27728 349.09064Q501.6679 349.59064 500.71478 349.59064Q499.4804 349.59064 498.76166 348.7Q497.9179 347.6375 497.9179 345.21564ZM498.99603 345.21564Q498.99603 347.325 499.49603 348.02814Q499.99603 348.73126 500.71478 348.73126Q501.44916 348.73126 501.93353 348.02814Q502.43353 347.325 502.43353 345.21564Q502.43353 343.09064 501.93353 342.40314Q501.44916 341.7 500.69916 341.7Q499.9804 341.7 499.5429 342.3094Q498.99603 343.09064 498.99603 345.21564ZM507.7929 346.8719L507.7929 345.8094L511.0429 345.8094L511.0429 346.8719L507.7929 346.8719ZM516.24603 349.45L516.24603 348.66876Q515.6523 349.59064 514.51166 349.59064Q513.76166 349.59064 513.13666 349.1844Q512.51166 348.7625 512.1679 348.02814Q511.82416 347.29376 511.82416 346.34064Q511.82416 345.41876 512.13666 344.65314Q512.44916 343.8875 513.07416 343.4969Q513.69916 343.09064 514.4648 343.09064Q515.0273 343.09064 515.4648 343.325Q515.9023 343.5594 516.18353 343.9344L516.18353 340.85626L517.2304 340.85626L517.2304 349.45L516.24603 349.45ZM512.9179 346.34064Q512.9179 347.54376 513.4179 348.1375Q513.9179 348.71564 514.6054 348.71564Q515.2929 348.71564 515.7773 348.15314Q516.26166 347.59064 516.26166 346.4344Q516.26166 345.15314 515.76166 344.5594Q515.2773 343.96564 514.55853 343.96564Q513.8554 343.96564 513.38666 344.54376Q512.9179 345.10626 512.9179 346.34064ZM522.88666 349.45L521.8398 349.45L521.8398 342.73126Q521.44916 343.09064 520.82416 343.46564Q520.2148 343.825 519.7304 343.9969L519.7304 342.98126Q520.6054 342.5594 521.26166 341.98126Q521.93353 341.3875 522.2148 340.825L522.88666 340.825L522.88666 349.45ZM525.9179 345.21564Q525.9179 343.6844 526.2304 342.7625Q526.5429 341.825 527.1523 341.325Q527.7773 340.825 528.7148 340.825Q529.4023 340.825 529.9179 341.10626Q530.44916 341.3875 530.7929 341.91876Q531.13666 342.4344 531.32416 343.1844Q531.51166 343.9344 531.51166 345.21564Q531.51166 346.73126 531.19916 347.65314Q530.9023 348.575 530.2773 349.09064Q529.6679 349.59064 528.7148 349.59064Q527.4804 349.59064 526.76166 348.7Q525.9179 347.6375 525.9179 345.21564ZM526.99603 345.21564Q526.99603 347.325 527.49603 348.02814Q527.99603 348.73126 528.7148 348.73126Q529.44916 348.73126 529.93353 348.02814Q530.43353 347.325 530.43353 345.21564Q530.43353 343.09064 529.93353 342.40314Q529.44916 341.7 528.69916 341.7Q527.9804 341.7 527.5429 342.3094Q526.99603 343.09064 526.99603 345.21564Z" fill-rule="nonzero"/><path fill="#4285f4" d="M158.0 56.916668C158.0 56.364384 158.44771 55.916668 159.0 55.916668L169.0 55.916668C169.55229 55.916668 170.0 56.364384 170.0 56.916668L170.0 66.916664C170.0 67.46895 169.55229 67.916664 169.0 67.916664L159.0 67.916664C158.44771 67.916664 158.0 67.46895 158.0 66.916664Z" fill-rule="nonzero"/><path fill="#1a1a1a" d="M182.85938 65.15104Q182.26562 65.65104 181.71875 65.854164Q181.1875 66.05729 180.5625 66.05729Q179.53125 66.05729 178.98438 65.55729Q178.4375 65.05729 178.4375 64.27604Q178.4375 63.822914 178.64062 63.447914Q178.84375 63.05729 179.1875 62.83854Q179.53125 62.604164 179.95312 62.49479Q180.25 62.40104 180.89062 62.322914Q182.15625 62.18229 182.76562 61.96354Q182.76562 61.74479 182.76562 61.697914Q182.76562 61.041664 182.46875 60.77604Q182.0625 60.43229 181.26562 60.43229Q180.53125 60.43229 180.17188 60.697914Q179.8125 60.947914 179.64062 61.604164L178.60938 61.46354Q178.75 60.80729 179.07812 60.40104Q179.40625 59.99479 180.01562 59.77604Q180.625 59.55729 181.42188 59.55729Q182.21875 59.55729 182.71875 59.74479Q183.21875 59.93229 183.45312 60.21354Q183.6875 60.49479 183.78125 60.93229Q183.82812 61.197914 183.82812 61.90104L183.82812 63.30729Q183.82812 64.77604 183.89062 65.166664Q183.96875 65.55729 184.17188 65.916664L183.0625 65.916664Q182.90625 65.58854 182.85938 65.15104ZM182.76562 62.791664Q182.1875 63.02604 181.04688 63.197914Q180.39062 63.291664 180.125 63.416664Q179.85938 63.52604 179.70312 63.74479Q179.5625 63.96354 179.5625 64.24479Q179.5625 64.666664 179.875 64.947914Q180.20312 65.229164 180.8125 65.229164Q181.42188 65.229164 181.89062 64.96354Q182.375 64.697914 182.59375 64.229164Q182.76562 63.86979 182.76562 63.18229L182.76562 62.791664ZM185.375 64.05729L186.40625 63.90104Q186.5 64.52604 186.89062 64.854164Q187.29688 65.18229 188.03125 65.18229Q188.75 65.18229 189.09375 64.90104Q189.45312 64.604164 189.45312 64.197914Q189.45312 63.83854 189.14062 63.635414Q188.92188 63.49479 188.0625 63.27604Q186.90625 62.979164 186.45312 62.77604Q186.01562 62.55729 185.78125 62.18229Q185.54688 61.80729 185.54688 61.33854Q185.54688 60.93229 185.73438 60.572914Q185.92188 60.21354 186.25 59.979164Q186.5 59.80729 186.92188 59.68229Q187.34375 59.55729 187.84375 59.55729Q188.5625 59.55729 189.10938 59.77604Q189.67188 59.979164 189.9375 60.33854Q190.20312 60.697914 190.29688 61.291664L189.26562 61.43229Q189.20312 60.96354 188.85938 60.697914Q188.53125 60.416664 187.90625 60.416664Q187.1875 60.416664 186.875 60.666664Q186.5625 60.90104 186.5625 61.229164Q186.5625 61.43229 186.6875 61.58854Q186.82812 61.760414 187.09375 61.86979Q187.25 61.93229 188.03125 62.135414Q189.15625 62.447914 189.59375 62.635414Q190.03125 62.822914 190.28125 63.18229Q190.53125 63.541664 190.53125 64.08854Q190.53125 64.61979 190.21875 65.08854Q189.92188 65.541664 189.34375 65.80729Q188.76562 66.05729 188.03125 66.05729Q186.8125 66.05729 186.17188 65.55729Q185.54688 65.041664 185.375 64.05729ZM191.75 68.30729L191.625 67.322914Q191.96875 67.416664 192.23438 67.416664Q192.57812 67.416664 192.78125 67.291664Q193.0 67.18229 193.14062 66.979164Q193.23438 66.80729 193.46875 66.18229Q193.48438 66.104164 193.5625 65.93229L191.1875 59.697914L192.32812 59.697914L193.625 63.291664Q193.875 63.979164 194.07812 64.74479Q194.26562 64.010414 194.51562 63.322914L195.84375 59.697914L196.89062 59.697914L194.53125 66.02604Q194.14062 67.041664 193.9375 67.43229Q193.65625 67.96354 193.28125 68.197914Q192.92188 68.447914 192.42188 68.447914Q192.125 68.447914 191.75 68.30729ZM197.79688 65.916664L197.79688 59.697914L198.73438 59.697914L198.73438 60.572914Q199.42188 59.55729 200.71875 59.55729Q201.28125 59.55729 201.75 59.760414Q202.23438 59.96354 202.46875 60.291664Q202.70312 60.61979 202.79688 61.05729Q202.84375 61.354164 202.84375 62.08854L202.84375 65.916664L201.79688 65.916664L201.79688 62.135414Q201.79688 61.479164 201.67188 61.166664Q201.54688 60.854164 201.23438 60.666664Q200.92188 60.46354 200.5 60.46354Q199.82812 60.46354 199.32812 60.90104Q198.84375 61.322914 198.84375 62.510414L198.84375 65.916664L197.79688 65.916664ZM208.85938 63.635414L209.89062 63.77604Q209.71875 64.83854 209.01562 65.447914Q208.3125 66.05729 207.29688 66.05729Q206.01562 66.05729 205.23438 65.229164Q204.46875 64.385414 204.46875 62.822914Q204.46875 61.822914 204.79688 61.072914Q205.14062 60.30729 205.8125 59.93229Q206.5 59.55729 207.3125 59.55729Q208.3125 59.55729 208.95312 60.072914Q209.60938 60.572914 209.79688 61.52604L208.76562 61.68229Q208.625 61.05729 208.25 60.74479Q207.875 60.416664 207.34375 60.416664Q206.54688 60.416664 206.04688 60.99479Q205.54688 61.55729 205.54688 62.791664Q205.54688 64.05729 206.03125 64.61979Q206.51562 65.18229 207.28125 65.18229Q207.90625 65.18229 208.3125 64.80729Q208.73438 64.43229 208.85938 63.635414ZM210.375 63.33854L210.375 62.27604L213.625 62.27604L213.625 63.33854L210.375 63.33854ZM214.375 64.05729L215.40625 63.90104Q215.5 64.52604 215.89062 64.854164Q216.29688 65.18229 217.03125 65.18229Q217.75 65.18229 218.09375 64.90104Q218.45312 64.604164 218.45312 64.197914Q218.45312 63.83854 218.14062 63.635414Q217.92188 63.49479 217.0625 63.27604Q215.90625 62.979164 215.45312 62.77604Q215.01562 62.55729 214.78125 62.18229Q214.54688 61.80729 214.54688 61.33854Q214.54688 60.93229 214.73438 60.572914Q214.92188 60.21354 215.25 59.979164Q215.5 59.80729 215.92188 59.68229Q216.34375 59.55729 216.84375 59.55729Q217.5625 59.55729 218.10938 59.77604Q218.67188 59.979164 218.9375 60.33854Q219.20312 60.697914 219.29688 61.291664L218.26562 61.43229Q218.20312 60.96354 217.85938 60.697914Q217.53125 60.416664 216.90625 60.416664Q216.1875 60.416664 215.875 60.666664Q215.5625 60.90104 215.5625 61.229164Q215.5625 61.43229 215.6875 61.58854Q215.82812 61.760414 216.09375 61.86979Q216.25 61.93229 217.03125 62.135414Q218.15625 62.447914 218.59375 62.635414Q219.03125 62.822914 219.28125 63.18229Q219.53125 63.541664 219.53125 64.08854Q219.53125 64.61979 219.21875 65.08854Q218.92188 65.541664 218.34375 65.80729Q217.76562 66.05729 217.03125 66.05729Q215.8125 66.05729 215.17188 65.55729Q214.54688 65.041664 214.375 64.05729ZM223.09375 64.979164L223.25 65.90104Q222.79688 65.99479 222.45312 65.99479Q221.875 65.99479 221.5625 65.822914Q221.25 65.635414 221.10938 65.33854Q220.98438 65.041664 220.98438 64.08854L220.98438 60.510414L220.21875 60.510414L220.21875 59.697914L220.98438 59.697914L220.98438 58.15104L222.03125 57.52604L222.03125 59.697914L223.09375 59.697914L223.09375 60.510414L222.03125 60.510414L222.03125 64.15104Q222.03125 64.604164 222.07812 64.729164Q222.14062 64.854164 222.26562 64.93229Q222.39062 65.010414 222.625 65.010414Q222.8125 65.010414 223.09375 64.979164ZM227.82812 65.916664L227.82812 65.135414Q227.23438 66.05729 226.09375 66.05729Q225.34375 66.05729 224.71875 65.65104Q224.09375 65.229164 223.75 64.49479Q223.40625 63.760414 223.40625 62.80729Q223.40625 61.885414 223.71875 61.11979Q224.03125 60.354164 224.65625 59.96354Q225.28125 59.55729 226.04688 59.55729Q226.60938 59.55729 227.04688 59.791664Q227.48438 60.02604 227.76562 60.40104L227.76562 57.322914L228.8125 57.322914L228.8125 65.916664L227.82812 65.916664ZM224.5 62.80729Q224.5 64.010414 225.0 64.604164Q225.5 65.18229 226.1875 65.18229Q226.875 65.18229 227.35938 64.61979Q227.84375 64.05729 227.84375 62.90104Q227.84375 61.61979 227.34375 61.02604Q226.85938 60.43229 226.14062 60.43229Q225.4375 60.43229 224.96875 61.010414Q224.5 61.572914 224.5 62.80729ZM230.0 66.05729L232.48438 57.18229L233.32812 57.18229L230.84375 66.05729L230.0 66.05729ZM233.79688 65.916664L233.79688 59.697914L234.73438 59.697914L234.73438 60.572914Q235.03125 60.104164 235.51562 59.83854Q236.0 59.55729 236.625 59.55729Q237.3125 59.55729 237.75 59.83854Q238.20312 60.11979 238.375 60.635414Q239.125 59.55729 240.29688 59.55729Q241.23438 59.55729 241.71875 60.072914Q242.21875 60.572914 242.21875 61.65104L242.21875 65.916664L241.17188 65.916664L241.17188 61.99479Q241.17188 61.36979 241.0625 61.08854Q240.96875 60.80729 240.70312 60.635414Q240.4375 60.46354 240.0625 60.46354Q239.40625 60.46354 238.96875 60.90104Q238.54688 61.33854 238.54688 62.30729L238.54688 65.916664L237.48438 65.916664L237.48438 61.86979Q237.48438 61.166664 237.21875 60.822914Q236.96875 60.46354 236.39062 60.46354Q235.9375 60.46354 235.5625 60.697914Q235.1875 60.93229 235.01562 61.385414Q234.84375 61.83854 234.84375 62.68229L234.84375 65.916664L233.79688 65.916664ZM247.85938 65.15104Q247.26562 65.65104 246.71875 65.854164Q246.1875 66.05729 245.5625 66.05729Q244.53125 66.05729 243.98438 65.55729Q243.4375 65.05729 243.4375 64.27604Q243.4375 63.822914 243.64062 63.447914Q243.84375 63.05729 244.1875 62.83854Q244.53125 62.604164 244.95312 62.49479Q245.25 62.40104 245.89062 62.322914Q247.15625 62.18229 247.76562 61.96354Q247.76562 61.74479 247.76562 61.697914Q247.76562 61.041664 247.46875 60.77604Q247.0625 60.43229 246.26562 60.43229Q245.53125 60.43229 245.17188 60.697914Q244.8125 60.947914 244.64062 61.604164L243.60938 61.46354Q243.75 60.80729 244.07812 60.40104Q244.40625 59.99479 245.01562 59.77604Q245.625 59.55729 246.42188 59.55729Q247.21875 59.55729 247.71875 59.74479Q248.21875 59.93229 248.45312 60.21354Q248.6875 60.49479 248.78125 60.93229Q248.82812 61.197914 248.82812 61.90104L248.82812 63.30729Q248.82812 64.77604 248.89062 65.166664Q248.96875 65.55729 249.17188 65.916664L248.0625 65.916664Q247.90625 65.58854 247.85938 65.15104ZM247.76562 62.791664Q247.1875 63.02604 246.04688 63.197914Q245.39062 63.291664 245.125 63.416664Q244.85938 63.52604 244.70312 63.74479Q244.5625 63.96354 244.5625 64.24479Q244.5625 64.666664 244.875 64.947914Q245.20312 65.229164 245.8125 65.229164Q246.42188 65.229164 246.89062 64.96354Q247.375 64.697914 247.59375 64.229164Q247.76562 63.86979 247.76562 63.18229L247.76562 62.791664ZM250.375 64.05729L251.40625 63.90104Q251.5 64.52604 251.89062 64.854164Q252.29688 65.18229 253.03125 65.18229Q253.75 65.18229 254.09375 64.90104Q254.45312 64.604164 254.45312 64.197914Q254.45312 63.83854 254.14062 63.635414Q253.92188 63.49479 253.0625 63.27604Q251.90625 62.979164 251.45312 62.77604Q251.01562 62.55729 250.78125 62.18229Q250.54688 61.80729 250.54688 61.33854Q250.54688 60.93229 250.73438 60.572914Q250.92188 60.21354 251.25 59.979164Q251.5 59.80729 251.92188 59.68229Q252.34375 59.55729 252.84375 59.55729Q253.5625 59.55729 254.10938 59.77604Q254.67188 59.979164 254.9375 60.33854Q255.20312 60.697914 255.29688 61.291664L254.26562 61.43229Q254.20312 60.96354 253.85938 60.697914Q253.53125 60.416664 252.90625 60.416664Q252.1875 60.416664 251.875 60.666664Q251.5625 60.90104 251.5625 61.229164Q251.5625 61.43229 251.6875 61.58854Q251.82812 61.760414 252.09375 61.86979Q252.25 61.93229 253.03125 62.135414Q254.15625 62.447914 254.59375 62.635414Q255.03125 62.822914 255.28125 63.18229Q255.53125 63.541664 255.53125 64.08854Q255.53125 64.61979 255.21875 65.08854Q254.92188 65.541664 254.34375 65.80729Q253.76562 66.05729 253.03125 66.05729Q251.8125 66.05729 251.17188 65.55729Q250.54688 65.041664 250.375 64.05729ZM259.09375 64.979164L259.25 65.90104Q258.79688 65.99479 258.45312 65.99479Q257.875 65.99479 257.5625 65.822914Q257.25 65.635414 257.10938 65.33854Q256.98438 65.041664 256.98438 64.08854L256.98438 60.510414L256.21875 60.510414L256.21875 59.697914L256.98438 59.697914L256.98438 58.15104L258.03125 57.52604L258.03125 59.697914L259.09375 59.697914L259.09375 60.510414L258.03125 60.510414L258.03125 64.15104Q258.03125 64.604164 258.07812 64.729164Q258.14062 64.854164 258.26562 64.93229Q258.39062 65.010414 258.625 65.010414Q258.8125 65.010414 259.09375 64.979164ZM264.04688 63.916664L265.14062 64.041664Q264.89062 64.99479 264.1875 65.52604Q263.48438 66.05729 262.40625 66.05729Q261.04688 66.05729 260.23438 65.21354Q259.4375 64.36979 259.4375 62.854164Q259.4375 61.291664 260.25 60.43229Q261.0625 59.55729 262.34375 59.55729Q263.59375 59.55729 264.375 60.40104Q265.17188 61.24479 265.17188 62.791664Q265.17188 62.885414 265.17188 63.072914L260.53125 63.072914Q260.59375 64.104164 261.10938 64.65104Q261.625 65.18229 262.40625 65.18229Q262.98438 65.18229 263.39062 64.885414Q263.8125 64.572914 264.04688 63.916664ZM260.59375 62.21354L264.0625 62.21354Q264.0 61.416664 263.67188 61.02604Q263.15625 60.416664 262.35938 60.416664Q261.625 60.416664 261.125 60.90104Q260.64062 61.385414 260.59375 62.21354ZM266.78125 65.916664L266.78125 59.697914L267.73438 59.697914L267.73438 60.635414Q268.09375 59.979164 268.39062 59.77604Q268.70312 59.55729 269.07812 59.55729Q269.60938 59.55729 270.15625 59.885414L269.79688 60.86979Q269.40625 60.635414 269.03125 60.635414Q268.67188 60.635414 268.39062 60.854164Q268.125 61.05729 268.01562 61.43229Q267.82812 61.99479 267.82812 62.65104L267.82812 65.916664L266.78125 65.916664Z" fill-rule="nonzero"/><path fill="#ea4335" d="M286.0 56.916668C286.0 56.364384 286.44772 55.916668 287.0 55.916668L297.0 55.916668C297.55228 55.916668 298.0 56.364384 298.0 56.916668L298.0 66.916664C298.0 67.46895 297.55228 67.916664 297.0 67.916664L287.0 67.916664C286.44772 67.916664 286.0 67.46895 286.0 66.916664Z" fill-rule="nonzero"/><path fill="#1a1a1a" d="M310.85938 65.15104Q310.26562 65.65104 309.71875 65.854164Q309.1875 66.05729 308.5625 66.05729Q307.53125 66.05729 306.98438 65.55729Q306.4375 65.05729 306.4375 64.27604Q306.4375 63.822914 306.64062 63.447914Q306.84375 63.05729 307.1875 62.83854Q307.53125 62.604164 307.95312 62.49479Q308.25 62.40104 308.89062 62.322914Q310.15625 62.18229 310.76562 61.96354Q310.76562 61.74479 310.76562 61.697914Q310.76562 61.041664 310.46875 60.77604Q310.0625 60.43229 309.26562 60.43229Q308.53125 60.43229 308.17188 60.697914Q307.8125 60.947914 307.64062 61.604164L306.60938 61.46354Q306.75 60.80729 307.07812 60.40104Q307.40625 59.99479 308.01562 59.77604Q308.625 59.55729 309.42188 59.55729Q310.21875 59.55729 310.71875 59.74479Q311.21875 59.93229 311.45312 60.21354Q311.6875 60.49479 311.78125 60.93229Q311.82812 61.197914 311.82812 61.90104L311.82812 63.30729Q311.82812 64.77604 311.89062 65.166664Q311.96875 65.55729 312.17188 65.916664L311.0625 65.916664Q310.90625 65.58854 310.85938 65.15104ZM310.76562 62.791664Q310.1875 63.02604 309.04688 63.197914Q308.39062 63.291664 308.125 63.416664Q307.85938 63.52604 307.70312 63.74479Q307.5625 63.96354 307.5625 64.24479Q307.5625 64.666664 307.875 64.947914Q308.20312 65.229164 308.8125 65.229164Q309.42188 65.229164 309.89062 64.96354Q310.375 64.697914 310.59375 64.229164Q310.76562 63.86979 310.76562 63.18229L310.76562 62.791664ZM313.375 64.05729L314.40625 63.90104Q314.5 64.52604 314.89062 64.854164Q315.29688 65.18229 316.03125 65.18229Q316.75 65.18229 317.09375 64.90104Q317.45312 64.604164 317.45312 64.197914Q317.45312 63.83854 317.14062 63.635414Q316.92188 63.49479 316.0625 63.27604Q314.90625 62.979164 314.45312 62.77604Q314.01562 62.55729 313.78125 62.18229Q313.54688 61.80729 313.54688 61.33854Q313.54688 60.93229 313.73438 60.572914Q313.92188 60.21354 314.25 59.979164Q314.5 59.80729 314.92188 59.68229Q315.34375 59.55729 315.84375 59.55729Q316.5625 59.55729 317.10938 59.77604Q317.67188 59.979164 317.9375 60.33854Q318.20312 60.697914 318.29688 61.291664L317.26562 61.43229Q317.20312 60.96354 316.85938 60.697914Q316.53125 60.416664 315.90625 60.416664Q315.1875 60.416664 314.875 60.666664Q314.5625 60.90104 314.5625 61.229164Q314.5625 61.43229 314.6875 61.58854Q314.82812 61.760414 315.09375 61.86979Q315.25 61.93229 316.03125 62.135414Q317.15625 62.447914 317.59375 62.635414Q318.03125 62.822914 318.28125 63.18229Q318.53125 63.541664 318.53125 64.08854Q318.53125 64.61979 318.21875 65.08854Q317.92188 65.541664 317.34375 65.80729Q316.76562 66.05729 316.03125 66.05729Q314.8125 66.05729 314.17188 65.55729Q313.54688 65.041664 313.375 64.05729ZM319.75 68.30729L319.625 67.322914Q319.96875 67.416664 320.23438 67.416664Q320.57812 67.416664 320.78125 67.291664Q321.0 67.18229 321.14062 66.979164Q321.23438 66.80729 321.46875 66.18229Q321.48438 66.104164 321.5625 65.93229L319.1875 59.697914L320.32812 59.697914L321.625 63.291664Q321.875 63.979164 322.07812 64.74479Q322.26562 64.010414 322.51562 63.322914L323.84375 59.697914L324.89062 59.697914L322.53125 66.02604Q322.14062 67.041664 321.9375 67.43229Q321.65625 67.96354 321.28125 68.197914Q320.92188 68.447914 320.42188 68.447914Q320.125 68.447914 319.75 68.30729ZM325.79688 65.916664L325.79688 59.697914L326.73438 59.697914L326.73438 60.572914Q327.42188 59.55729 328.71875 59.55729Q329.28125 59.55729 329.75 59.760414Q330.23438 59.96354 330.46875 60.291664Q330.70312 60.61979 330.79688 61.05729Q330.84375 61.354164 330.84375 62.08854L330.84375 65.916664L329.79688 65.916664L329.79688 62.135414Q329.79688 61.479164 329.67188 61.166664Q329.54688 60.854164 329.23438 60.666664Q328.92188 60.46354 328.5 60.46354Q327.82812 60.46354 327.32812 60.90104Q326.84375 61.322914 326.84375 62.510414L326.84375 65.916664L325.79688 65.916664ZM336.85938 63.635414L337.89062 63.77604Q337.71875 64.83854 337.01562 65.447914Q336.3125 66.05729 335.29688 66.05729Q334.01562 66.05729 333.23438 65.229164Q332.46875 64.385414 332.46875 62.822914Q332.46875 61.822914 332.79688 61.072914Q333.14062 60.30729 333.8125 59.93229Q334.5 59.55729 335.3125 59.55729Q336.3125 59.55729 336.95312 60.072914Q337.60938 60.572914 337.79688 61.52604L336.76562 61.68229Q336.625 61.05729 336.25 60.74479Q335.875 60.416664 335.34375 60.416664Q334.54688 60.416664 334.04688 60.99479Q333.54688 61.55729 333.54688 62.791664Q333.54688 64.05729 334.03125 64.61979Q334.51562 65.18229 335.28125 65.18229Q335.90625 65.18229 336.3125 64.80729Q336.73438 64.43229 336.85938 63.635414ZM338.375 63.33854L338.375 62.27604L341.625 62.27604L341.625 63.33854L338.375 63.33854ZM342.375 64.05729L343.40625 63.90104Q343.5 64.52604 343.89062 64.854164Q344.29688 65.18229 345.03125 65.18229Q345.75 65.18229 346.09375 64.90104Q346.45312 64.604164 346.45312 64.197914Q346.45312 63.83854 346.14062 63.635414Q345.92188 63.49479 345.0625 63.27604Q343.90625 62.979164 343.45312 62.77604Q343.01562 62.55729 342.78125 62.18229Q342.54688 61.80729 342.54688 61.33854Q342.54688 60.93229 342.73438 60.572914Q342.92188 60.21354 343.25 59.979164Q343.5 59.80729 343.92188 59.68229Q344.34375 59.55729 344.84375 59.55729Q345.5625 59.55729 346.10938 59.77604Q346.67188 59.979164 346.9375 60.33854Q347.20312 60.697914 347.29688 61.291664L346.26562 61.43229Q346.20312 60.96354 345.85938 60.697914Q345.53125 60.416664 344.90625 60.416664Q344.1875 60.416664 343.875 60.666664Q343.5625 60.90104 343.5625 61.229164Q343.5625 61.43229 343.6875 61.58854Q343.82812 61.760414 344.09375 61.86979Q344.25 61.93229 345.03125 62.135414Q346.15625 62.447914 346.59375 62.635414Q347.03125 62.822914 347.28125 63.18229Q347.53125 63.541664 347.53125 64.08854Q347.53125 64.61979 347.21875 65.08854Q346.92188 65.541664 346.34375 65.80729Q345.76562 66.05729 345.03125 66.05729Q343.8125 66.05729 343.17188 65.55729Q342.54688 65.041664 342.375 64.05729ZM351.09375 64.979164L351.25 65.90104Q350.79688 65.99479 350.45312 65.99479Q349.875 65.99479 349.5625 65.822914Q349.25 65.635414 349.10938 65.33854Q348.98438 65.041664 348.98438 64.08854L348.98438 60.510414L348.21875 60.510414L348.21875 59.697914L348.98438 59.697914L348.98438 58.15104L350.03125 57.52604L350.03125 59.697914L351.09375 59.697914L351.09375 60.510414L350.03125 60.510414L350.03125 64.15104Q350.03125 64.604164 350.07812 64.729164Q350.14062 64.854164 350.26562 64.93229Q350.39062 65.010414 350.625 65.010414Q350.8125 65.010414 351.09375 64.979164ZM355.82812 65.916664L355.82812 65.135414Q355.23438 66.05729 354.09375 66.05729Q353.34375 66.05729 352.71875 65.65104Q352.09375 65.229164 351.75 64.49479Q351.40625 63.760414 351.40625 62.80729Q351.40625 61.885414 351.71875 61.11979Q352.03125 60.354164 352.65625 59.96354Q353.28125 59.55729 354.04688 59.55729Q354.60938 59.55729 355.04688 59.791664Q355.48438 60.02604 355.76562 60.40104L355.76562 57.322914L356.8125 57.322914L356.8125 65.916664L355.82812 65.916664ZM352.5 62.80729Q352.5 64.010414 353.0 64.604164Q353.5 65.18229 354.1875 65.18229Q354.875 65.18229 355.35938 64.61979Q355.84375 64.05729 355.84375 62.90104Q355.84375 61.61979 355.34375 61.02604Q354.85938 60.43229 354.14062 60.43229Q353.4375 60.43229 352.96875 61.010414Q352.5 61.572914 352.5 62.80729ZM358.0 66.05729L360.48438 57.18229L361.32812 57.18229L358.84375 66.05729L358.0 66.05729ZM361.79688 65.916664L361.79688 59.697914L362.73438 59.697914L362.73438 60.572914Q363.42188 59.55729 364.71875 59.55729Q365.28125 59.55729 365.75 59.760414Q366.23438 59.96354 366.46875 60.291664Q366.70312 60.61979 366.79688 61.05729Q366.84375 61.354164 366.84375 62.08854L366.84375 65.916664L365.79688 65.916664L365.79688 62.135414Q365.79688 61.479164 365.67188 61.166664Q365.54688 60.854164 365.23438 60.666664Q364.92188 60.46354 364.5 60.46354Q363.82812 60.46354 363.32812 60.90104Q362.84375 61.322914 362.84375 62.510414L362.84375 65.916664L361.79688 65.916664ZM373.04688 63.916664L374.14062 64.041664Q373.89062 64.99479 373.1875 65.52604Q372.48438 66.05729 371.40625 66.05729Q370.04688 66.05729 369.23438 65.21354Q368.4375 64.36979 368.4375 62.854164Q368.4375 61.291664 369.25 60.43229Q370.0625 59.55729 371.34375 59.55729Q372.59375 59.55729 373.375 60.40104Q374.17188 61.24479 374.17188 62.791664Q374.17188 62.885414 374.17188 63.072914L369.53125 63.072914Q369.59375 64.104164 370.10938 64.65104Q370.625 65.18229 371.40625 65.18229Q371.98438 65.18229 372.39062 64.885414Q372.8125 64.572914 373.04688 63.916664ZM369.59375 62.21354L373.0625 62.21354Q373.0 61.416664 372.67188 61.02604Q372.15625 60.416664 371.35938 60.416664Q370.625 60.416664 370.125 60.90104Q369.64062 61.385414 369.59375 62.21354ZM376.9375 65.916664L375.03125 59.697914L376.125 59.697914L377.10938 63.291664L377.48438 64.61979Q377.51562 64.52604 377.8125 63.33854L378.79688 59.697914L379.875 59.697914L380.8125 63.30729L381.125 64.49479L381.48438 63.291664L382.54688 59.697914L383.57812 59.697914L381.625 65.916664L380.53125 65.916664L379.54688 62.18229L379.29688 61.135414L378.04688 65.916664L376.9375 65.916664ZM384.375 63.33854L384.375 62.27604L387.625 62.27604L387.625 63.33854L384.375 63.33854ZM388.375 64.05729L389.40625 63.90104Q389.5 64.52604 389.89062 64.854164Q390.29688 65.18229 391.03125 65.18229Q391.75 65.18229 392.09375 64.90104Q392.45312 64.604164 392.45312 64.197914Q392.45312 63.83854 392.14062 63.635414Q391.92188 63.49479 391.0625 63.27604Q389.90625 62.979164 389.45312 62.77604Q389.01562 62.55729 388.78125 62.18229Q388.54688 61.80729 388.54688 61.33854Q388.54688 60.93229 388.73438 60.572914Q388.92188 60.21354 389.25 59.979164Q389.5 59.80729 389.92188 59.68229Q390.34375 59.55729 390.84375 59.55729Q391.5625 59.55729 392.10938 59.77604Q392.67188 59.979164 392.9375 60.33854Q393.20312 60.697914 393.29688 61.291664L392.26562 61.43229Q392.20312 60.96354 391.85938 60.697914Q391.53125 60.416664 390.90625 60.416664Q390.1875 60.416664 389.875 60.666664Q389.5625 60.90104 389.5625 61.229164Q389.5625 61.43229 389.6875 61.58854Q389.82812 61.760414 390.09375 61.86979Q390.25 61.93229 391.03125 62.135414Q392.15625 62.447914 392.59375 62.635414Q393.03125 62.822914 393.28125 63.18229Q393.53125 63.541664 393.53125 64.08854Q393.53125 64.61979 393.21875 65.08854Q392.92188 65.541664 392.34375 65.80729Q391.76562 66.05729 391.03125 66.05729Q389.8125 66.05729 389.17188 65.55729Q388.54688 65.041664 388.375 64.05729ZM398.85938 63.635414L399.89062 63.77604Q399.71875 64.83854 399.01562 65.447914Q398.3125 66.05729 397.29688 66.05729Q396.01562 66.05729 395.23438 65.229164Q394.46875 64.385414 394.46875 62.822914Q394.46875 61.822914 394.79688 61.072914Q395.14062 60.30729 395.8125 59.93229Q396.5 59.55729 397.3125 59.55729Q398.3125 59.55729 398.95312 60.072914Q399.60938 60.572914 399.79688 61.52604L398.76562 61.68229Q398.625 61.05729 398.25 60.74479Q397.875 60.416664 397.34375 60.416664Q396.54688 60.416664 396.04688 60.99479Q395.54688 61.55729 395.54688 62.791664Q395.54688 64.05729 396.03125 64.61979Q396.51562 65.18229 397.28125 65.18229Q397.90625 65.18229 398.3125 64.80729Q398.73438 64.43229 398.85938 63.635414ZM400.79688 65.916664L400.79688 57.322914L401.84375 57.322914L401.84375 60.40104Q402.57812 59.55729 403.70312 59.55729Q404.40625 59.55729 404.90625 59.83854Q405.42188 60.104164 405.64062 60.58854Q405.85938 61.05729 405.85938 61.979164L405.85938 65.916664L404.8125 65.916664L404.8125 61.979164Q404.8125 61.18229 404.46875 60.822914Q404.125 60.46354 403.5 60.46354Q403.03125 60.46354 402.60938 60.71354Q402.20312 60.947914 402.01562 61.36979Q401.84375 61.77604 401.84375 62.510414L401.84375 65.916664L400.79688 65.916664ZM412.04688 63.916664L413.14062 64.041664Q412.89062 64.99479 412.1875 65.52604Q411.48438 66.05729 410.40625 66.05729Q409.04688 66.05729 408.23438 65.21354Q407.4375 64.36979 407.4375 62.854164Q407.4375 61.291664 408.25 60.43229Q409.0625 59.55729 410.34375 59.55729Q411.59375 59.55729 412.375 60.40104Q413.17188 61.24479 413.17188 62.791664Q413.17188 62.885414 413.17188 63.072914L408.53125 63.072914Q408.59375 64.104164 409.10938 64.65104Q409.625 65.18229 410.40625 65.18229Q410.98438 65.18229 411.39062 64.885414Q411.8125 64.572914 412.04688 63.916664ZM408.59375 62.21354L412.0625 62.21354Q412.0 61.416664 411.67188 61.02604Q411.15625 60.416664 410.35938 60.416664Q409.625 60.416664 409.125 60.90104Q408.64062 61.385414 408.59375 62.21354ZM418.82812 65.916664L418.82812 65.135414Q418.23438 66.05729 417.09375 66.05729Q416.34375 66.05729 415.71875 65.65104Q415.09375 65.229164 414.75 64.49479Q414.40625 63.760414 414.40625 62.80729Q414.40625 61.885414 414.71875 61.11979Q415.03125 60.354164 415.65625 59.96354Q416.28125 59.55729 417.04688 59.55729Q417.60938 59.55729 418.04688 59.791664Q418.48438 60.02604 418.76562 60.40104L418.76562 57.322914L419.8125 57.322914L419.8125 65.916664L418.82812 65.916664ZM415.5 62.80729Q415.5 64.010414 416.0 64.604164Q416.5 65.18229 417.1875 65.18229Q417.875 65.18229 418.35938 64.61979Q418.84375 64.05729 418.84375 62.90104Q418.84375 61.61979 418.34375 61.02604Q417.85938 60.43229 417.14062 60.43229Q416.4375 60.43229 415.96875 61.010414Q415.5 61.572914 415.5 62.80729ZM425.875 65.916664L425.875 64.99479Q425.14062 66.05729 423.89062 66.05729Q423.34375 66.05729 422.85938 65.854164Q422.39062 65.635414 422.15625 65.322914Q421.92188 64.99479 421.82812 64.52604Q421.76562 64.229164 421.76562 63.541664L421.76562 59.697914L422.82812 59.697914L422.82812 63.15104Q422.82812 63.96354 422.89062 64.260414Q422.98438 64.666664 423.29688 64.916664Q423.625 65.15104 424.10938 65.15104Q424.57812 65.15104 424.98438 64.916664Q425.40625 64.666664 425.57812 64.24479Q425.76562 63.822914 425.76562 63.02604L425.76562 59.697914L426.8125 59.697914L426.8125 65.916664L425.875 65.916664ZM428.76562 65.916664L428.76562 57.322914L429.82812 57.322914L429.82812 65.916664L428.76562 65.916664ZM436.04688 63.916664L437.14062 64.041664Q436.89062 64.99479 436.1875 65.52604Q435.48438 66.05729 434.40625 66.05729Q433.04688 66.05729 432.23438 65.21354Q431.4375 64.36979 431.4375 62.854164Q431.4375 61.291664 432.25 60.43229Q433.0625 59.55729 434.34375 59.55729Q435.59375 59.55729 436.375 60.40104Q437.17188 61.24479 437.17188 62.791664Q437.17188 62.885414 437.17188 63.072914L432.53125 63.072914Q432.59375 64.104164 433.10938 64.65104Q433.625 65.18229 434.40625 65.18229Q434.98438 65.18229 435.39062 64.885414Q435.8125 64.572914 436.04688 63.916664ZM432.59375 62.21354L436.0625 62.21354Q436.0 61.416664 435.67188 61.02604Q435.15625 60.416664 434.35938 60.416664Q433.625 60.416664 433.125 60.90104Q432.64062 61.385414 432.59375 62.21354ZM438.78125 65.916664L438.78125 59.697914L439.73438 59.697914L439.73438 60.635414Q440.09375 59.979164 440.39062 59.77604Q440.70312 59.55729 441.07812 59.55729Q441.60938 59.55729 442.15625 59.885414L441.79688 60.86979Q441.40625 60.635414 441.03125 60.635414Q440.67188 60.635414 440.39062 60.854164Q440.125 61.05729 440.01562 61.43229Q439.82812 61.99479 439.82812 62.65104L439.82812 65.916664L438.78125 65.916664Z" fill-rule="nonzero"/><path fill="#757575" d="M147.10938 37.55L147.10938 23.2375L149.0 23.2375L149.0 29.1125L156.4375 29.1125L156.4375 23.2375L158.32812 23.2375L158.32812 37.55L156.4375 37.55L156.4375 30.8L149.0 30.8L149.0 37.55L147.10938 37.55ZM164.6875 37.55L164.6875 24.925L159.96875 24.925L159.96875 23.2375L171.3125 23.2375L171.3125 24.925L166.57812 24.925L166.57812 37.55L164.6875 37.55ZM176.6875 37.55L176.6875 24.925L171.96875 24.925L171.96875 23.2375L183.3125 23.2375L183.3125 24.925L178.57812 24.925L178.57812 37.55L176.6875 37.55ZM185.04688 37.55L185.04688 23.2375L190.4375 23.2375Q191.875 23.2375 192.625 23.3625Q193.67188 23.55 194.39062 24.05Q195.10938 24.534374 195.53125 25.425Q195.96875 26.315624 195.96875 27.378124Q195.96875 29.20625 194.79688 30.471874Q193.64062 31.721874 190.60938 31.721874L186.9375 31.721874L186.9375 37.55L185.04688 37.55ZM186.9375 30.034374L190.64062 30.034374Q192.46875 30.034374 193.23438 29.3625Q194.01562 28.675 194.01562 27.425Q194.01562 26.534374 193.5625 25.89375Q193.10938 25.253124 192.375 25.05Q191.89062 24.925 190.59375 24.925L186.9375 24.925L186.9375 30.034374ZM205.4375 37.55L203.8125 37.55L203.8125 23.2375L205.5625 23.2375L205.5625 28.346874Q206.6875 26.940624 208.40625 26.940624Q209.35938 26.940624 210.21875 27.33125Q211.07812 27.721874 211.625 28.425Q212.17188 29.1125 212.48438 30.096874Q212.79688 31.08125 212.79688 32.20625Q212.79688 34.878124 211.48438 36.33125Q210.17188 37.784374 208.32812 37.784374Q206.48438 37.784374 205.4375 36.253124L205.4375 37.55ZM205.42188 32.284374Q205.42188 34.14375 205.92188 34.9875Q206.76562 36.33125 208.17188 36.33125Q209.32812 36.33125 210.15625 35.33125Q211.0 34.33125 211.0 32.346874Q211.0 30.315624 210.1875 29.3625Q209.39062 28.39375 208.25 28.39375Q207.09375 28.39375 206.25 29.39375Q205.42188 30.39375 205.42188 32.284374ZM221.92188 34.20625L223.73438 34.440624Q223.3125 36.01875 222.14062 36.909374Q220.98438 37.784374 219.17188 37.784374Q216.90625 37.784374 215.5625 36.39375Q214.23438 34.9875 214.23438 32.45625Q214.23438 29.83125 215.57812 28.39375Q216.92188 26.940624 219.07812 26.940624Q221.15625 26.940624 222.46875 28.3625Q223.79688 29.76875 223.79688 32.346874Q223.79688 32.503124 223.78125 32.815624L216.04688 32.815624Q216.14062 34.51875 217.01562 35.425Q217.89062 36.33125 219.1875 36.33125Q220.15625 36.33125 220.82812 35.83125Q221.51562 35.315624 221.92188 34.20625ZM216.14062 31.3625L221.9375 31.3625Q221.82812 30.065624 221.28125 29.409374Q220.4375 28.39375 219.09375 28.39375Q217.89062 28.39375 217.0625 29.20625Q216.23438 30.003124 216.14062 31.3625ZM225.8125 37.55L225.8125 27.175L227.40625 27.175L227.40625 28.659374Q228.54688 26.940624 230.70312 26.940624Q231.64062 26.940624 232.42188 27.284374Q233.21875 27.6125 233.60938 28.159374Q234.0 28.70625 234.15625 29.45625Q234.25 29.95625 234.25 31.175L234.25 37.55L232.48438 37.55L232.48438 31.2375Q232.48438 30.159374 232.28125 29.628124Q232.07812 29.096874 231.54688 28.784374Q231.03125 28.471874 230.32812 28.471874Q229.20312 28.471874 228.39062 29.190624Q227.57812 29.89375 227.57812 31.878124L227.57812 37.55L225.8125 37.55ZM243.59375 33.753124L245.3125 33.971874Q245.03125 35.76875 243.85938 36.784374Q242.70312 37.784374 241.0 37.784374Q238.875 37.784374 237.57812 36.39375Q236.28125 35.003124 236.28125 32.409374Q236.28125 30.721874 236.82812 29.471874Q237.39062 28.20625 238.53125 27.58125Q239.67188 26.940624 241.01562 26.940624Q242.70312 26.940624 243.76562 27.8Q244.84375 28.659374 245.15625 30.221874L243.4375 30.4875Q243.20312 29.440624 242.57812 28.925Q241.95312 28.39375 241.07812 28.39375Q239.75 28.39375 238.92188 29.346874Q238.09375 30.3 238.09375 32.346874Q238.09375 34.440624 238.89062 35.39375Q239.6875 36.33125 240.98438 36.33125Q242.01562 36.33125 242.70312 35.70625Q243.40625 35.065624 243.59375 33.753124ZM246.8125 37.55L246.8125 23.2375L248.57812 23.2375L248.57812 28.3625Q249.8125 26.940624 251.6875 26.940624Q252.82812 26.940624 253.67188 27.39375Q254.53125 27.846874 254.89062 28.659374Q255.26562 29.45625 255.26562 30.971874L255.26562 37.55L253.51562 37.55L253.51562 30.971874Q253.51562 29.659374 252.9375 29.065624Q252.35938 28.45625 251.32812 28.45625Q250.54688 28.45625 249.84375 28.8625Q249.15625 29.26875 248.85938 29.971874Q248.57812 30.659374 248.57812 31.878124L248.57812 37.55L246.8125 37.55ZM257.8125 37.55L257.8125 27.175L259.39062 27.175L259.39062 28.628124Q259.875 27.878124 260.6875 27.409374Q261.5 26.940624 262.53125 26.940624Q263.6875 26.940624 264.42188 27.425Q265.15625 27.89375 265.46875 28.753124Q266.70312 26.940624 268.67188 26.940624Q270.21875 26.940624 271.04688 27.8Q271.875 28.659374 271.875 30.425L271.875 37.55L270.125 37.55L270.125 31.01875Q270.125 29.95625 269.95312 29.503124Q269.78125 29.034374 269.32812 28.753124Q268.89062 28.471874 268.28125 28.471874Q267.1875 28.471874 266.45312 29.20625Q265.73438 29.925 265.73438 31.51875L265.73438 37.55L263.98438 37.55L263.98438 30.815624Q263.98438 29.64375 263.54688 29.065624Q263.125 28.471874 262.14062 28.471874Q261.40625 28.471874 260.76562 28.8625Q260.14062 29.253124 259.85938 30.003124Q259.57812 30.753124 259.57812 32.175L259.57812 37.55L257.8125 37.55ZM281.59375 36.26875Q280.60938 37.096874 279.70312 37.440624Q278.79688 37.784374 277.76562 37.784374Q276.0625 37.784374 275.14062 36.95625Q274.21875 36.1125 274.21875 34.815624Q274.21875 34.05 274.5625 33.425Q274.92188 32.8 275.48438 32.425Q276.04688 32.034374 276.75 31.83125Q277.26562 31.70625 278.3125 31.565624Q280.4375 31.315624 281.4375 30.971874Q281.45312 30.6125 281.45312 30.503124Q281.45312 29.440624 280.95312 28.9875Q280.28125 28.39375 278.95312 28.39375Q277.70312 28.39375 277.10938 28.83125Q276.53125 29.26875 276.25 30.378124L274.53125 30.14375Q274.76562 29.034374 275.29688 28.3625Q275.82812 27.675 276.84375 27.315624Q277.85938 26.940624 279.20312 26.940624Q280.53125 26.940624 281.35938 27.253124Q282.1875 27.565624 282.57812 28.05Q282.96875 28.51875 283.125 29.2375Q283.21875 29.690624 283.21875 30.8625L283.21875 33.20625Q283.21875 35.659374 283.32812 36.315624Q283.4375 36.95625 283.78125 37.55L281.9375 37.55Q281.67188 37.003124 281.59375 36.26875ZM281.4375 32.346874Q280.48438 32.7375 278.5625 33.003124Q277.48438 33.159374 277.03125 33.3625Q276.59375 33.55 276.34375 33.925Q276.09375 34.3 276.09375 34.76875Q276.09375 35.471874 276.625 35.940624Q277.15625 36.409374 278.1875 36.409374Q279.20312 36.409374 279.98438 35.971874Q280.78125 35.51875 281.15625 34.753124Q281.4375 34.14375 281.4375 32.9875L281.4375 32.346874ZM285.79688 37.55L285.79688 27.175L287.375 27.175L287.375 28.753124Q287.98438 27.64375 288.5 27.3Q289.01562 26.940624 289.625 26.940624Q290.51562 26.940624 291.4375 27.503124L290.82812 29.14375Q290.1875 28.753124 289.54688 28.753124Q288.96875 28.753124 288.5 29.1125Q288.04688 29.45625 287.84375 30.065624Q287.5625 31.003124 287.5625 32.1125L287.5625 37.55L285.79688 37.55ZM292.82812 37.55L292.82812 23.2375L294.59375 23.2375L294.59375 31.39375L298.75 27.175L301.01562 27.175L297.0625 31.01875L301.42188 37.55L299.25 37.55L295.82812 32.253124L294.59375 33.440624L294.59375 37.55L292.82812 37.55ZM312.17188 41.753124Q310.71875 39.925 309.71875 37.471874Q308.71875 35.003124 308.71875 32.3625Q308.71875 30.034374 309.46875 27.909374Q310.34375 25.440624 312.17188 22.9875L313.4375 22.9875Q312.25 25.01875 311.875 25.89375Q311.28125 27.2375 310.9375 28.70625Q310.51562 30.534374 310.51562 32.378124Q310.51562 37.065624 313.4375 41.753124L312.17188 41.753124ZM315.8125 37.55L315.8125 23.2375L317.57812 23.2375L317.57812 28.3625Q318.8125 26.940624 320.6875 26.940624Q321.82812 26.940624 322.67188 27.39375Q323.53125 27.846874 323.89062 28.659374Q324.26562 29.45625 324.26562 30.971874L324.26562 37.55L322.51562 37.55L322.51562 30.971874Q322.51562 29.659374 321.9375 29.065624Q321.35938 28.45625 320.32812 28.45625Q319.54688 28.45625 318.84375 28.8625Q318.15625 29.26875 317.85938 29.971874Q317.57812 30.659374 317.57812 31.878124L317.57812 37.55L315.8125 37.55ZM326.82812 25.253124L326.82812 23.2375L328.59375 23.2375L328.59375 25.253124L326.82812 25.253124ZM326.82812 37.55L326.82812 27.175L328.59375 27.175L328.59375 37.55L326.82812 37.55ZM330.5 38.409374L332.20312 38.659374Q332.3125 39.45625 332.79688 39.815624Q333.45312 40.3 334.59375 40.3Q335.8125 40.3 336.46875 39.815624Q337.14062 39.33125 337.375 38.45625Q337.51562 37.909374 337.5 36.190624Q336.34375 37.55 334.625 37.55Q332.48438 37.55 331.3125 36.003124Q330.14062 34.45625 330.14062 32.3Q330.14062 30.815624 330.67188 29.565624Q331.21875 28.315624 332.23438 27.628124Q333.26562 26.940624 334.64062 26.940624Q336.46875 26.940624 337.67188 28.425L337.67188 27.175L339.28125 27.175L339.28125 36.14375Q339.28125 38.565624 338.78125 39.565624Q338.29688 40.58125 337.21875 41.159374Q336.15625 41.753124 334.59375 41.753124Q332.75 41.753124 331.59375 40.925Q330.45312 40.096874 330.5 38.409374ZM331.95312 32.175Q331.95312 34.221874 332.76562 35.159374Q333.57812 36.096874 334.79688 36.096874Q336.0 36.096874 336.8125 35.159374Q337.64062 34.221874 337.64062 32.2375Q337.64062 30.33125 336.79688 29.3625Q335.95312 28.39375 334.76562 28.39375Q333.59375 28.39375 332.76562 29.346874Q331.95312 30.3 331.95312 32.175ZM341.8125 37.55L341.8125 23.2375L343.57812 23.2375L343.57812 28.3625Q344.8125 26.940624 346.6875 26.940624Q347.82812 26.940624 348.67188 27.39375Q349.53125 27.846874 349.89062 28.659374Q350.26562 29.45625 350.26562 30.971874L350.26562 37.55L348.51562 37.55L348.51562 30.971874Q348.51562 29.659374 347.9375 29.065624Q347.35938 28.45625 346.32812 28.45625Q345.54688 28.45625 344.84375 28.8625Q344.15625 29.26875 343.85938 29.971874Q343.57812 30.659374 343.57812 31.878124L343.57812 37.55L341.8125 37.55ZM359.92188 34.20625L361.73438 34.440624Q361.3125 36.01875 360.14062 36.909374Q358.98438 37.784374 357.17188 37.784374Q354.90625 37.784374 353.5625 36.39375Q352.23438 34.9875 352.23438 32.45625Q352.23438 29.83125 353.57812 28.39375Q354.92188 26.940624 357.07812 26.940624Q359.15625 26.940624 360.46875 28.3625Q361.79688 29.76875 361.79688 32.346874Q361.79688 32.503124 361.78125 32.815624L354.04688 32.815624Q354.14062 34.51875 355.01562 35.425Q355.89062 36.33125 357.1875 36.33125Q358.15625 36.33125 358.82812 35.83125Q359.51562 35.315624 359.92188 34.20625ZM354.14062 31.3625L359.9375 31.3625Q359.82812 30.065624 359.28125 29.409374Q358.4375 28.39375 357.09375 28.39375Q355.89062 28.39375 355.0625 29.20625Q354.23438 30.003124 354.14062 31.3625ZM363.79688 37.55L363.79688 27.175L365.375 27.175L365.375 28.753124Q365.98438 27.64375 366.5 27.3Q367.01562 26.940624 367.625 26.940624Q368.51562 26.940624 369.4375 27.503124L368.82812 29.14375Q368.1875 28.753124 367.54688 28.753124Q366.96875 28.753124 366.5 29.1125Q366.04688 29.45625 365.84375 30.065624Q365.5625 31.003124 365.5625 32.1125L365.5625 37.55L363.79688 37.55ZM376.82812 25.253124L376.82812 23.2375L378.59375 23.2375L378.59375 25.253124L376.82812 25.253124ZM376.82812 37.55L376.82812 27.175L378.59375 27.175L378.59375 37.55L376.82812 37.55ZM380.10938 34.45625L381.85938 34.175Q382.0 35.221874 382.67188 35.784374Q383.34375 36.33125 384.54688 36.33125Q385.75 36.33125 386.32812 35.846874Q386.92188 35.346874 386.92188 34.690624Q386.92188 34.096874 386.40625 33.753124Q386.04688 33.51875 384.60938 33.159374Q382.67188 32.659374 381.92188 32.315624Q381.1875 31.95625 380.79688 31.33125Q380.40625 30.690624 380.40625 29.925Q380.40625 29.2375 380.71875 28.64375Q381.04688 28.05 381.59375 27.659374Q382.0 27.3625 382.70312 27.159374Q383.42188 26.940624 384.23438 26.940624Q385.45312 26.940624 386.375 27.3Q387.29688 27.64375 387.73438 28.253124Q388.17188 28.846874 388.34375 29.846874L386.625 30.08125Q386.5 29.284374 385.9375 28.846874Q385.375 28.39375 384.35938 28.39375Q383.14062 28.39375 382.625 28.8Q382.10938 29.190624 382.10938 29.721874Q382.10938 30.065624 382.32812 30.346874Q382.53125 30.628124 383.0 30.815624Q383.26562 30.909374 384.54688 31.253124Q386.42188 31.753124 387.15625 32.08125Q387.89062 32.39375 388.3125 33.003124Q388.73438 33.596874 388.73438 34.503124Q388.73438 35.378124 388.21875 36.159374Q387.70312 36.940624 386.73438 37.3625Q385.76562 37.784374 384.54688 37.784374Q382.53125 37.784374 381.46875 36.940624Q380.40625 36.096874 380.10938 34.45625ZM398.4375 37.55L396.8125 37.55L396.8125 23.2375L398.5625 23.2375L398.5625 28.346874Q399.6875 26.940624 401.40625 26.940624Q402.35938 26.940624 403.21875 27.33125Q404.07812 27.721874 404.625 28.425Q405.17188 29.1125 405.48438 30.096874Q405.79688 31.08125 405.79688 32.20625Q405.79688 34.878124 404.48438 36.33125Q403.17188 37.784374 401.32812 37.784374Q399.48438 37.784374 398.4375 36.253124L398.4375 37.55ZM398.42188 32.284374Q398.42188 34.14375 398.92188 34.9875Q399.76562 36.33125 401.17188 36.33125Q402.32812 36.33125 403.15625 35.33125Q404.0 34.33125 404.0 32.346874Q404.0 30.315624 403.1875 29.3625Q402.39062 28.39375 401.25 28.39375Q400.09375 28.39375 399.25 29.39375Q398.42188 30.39375 398.42188 32.284374ZM414.92188 34.20625L416.73438 34.440624Q416.3125 36.01875 415.14062 36.909374Q413.98438 37.784374 412.17188 37.784374Q409.90625 37.784374 408.5625 36.39375Q407.23438 34.9875 407.23438 32.45625Q407.23438 29.83125 408.57812 28.39375Q409.92188 26.940624 412.07812 26.940624Q414.15625 26.940624 415.46875 28.3625Q416.79688 29.76875 416.79688 32.346874Q416.79688 32.503124 416.78125 32.815624L409.04688 32.815624Q409.14062 34.51875 410.01562 35.425Q410.89062 36.33125 412.1875 36.33125Q413.15625 36.33125 413.82812 35.83125Q414.51562 35.315624 414.92188 34.20625ZM409.14062 31.3625L414.9375 31.3625Q414.82812 30.065624 414.28125 29.409374Q413.4375 28.39375 412.09375 28.39375Q410.89062 28.39375 410.0625 29.20625Q409.23438 30.003124 409.14062 31.3625ZM422.65625 35.971874L422.90625 37.534374Q422.17188 37.690624 421.57812 37.690624Q420.625 37.690624 420.09375 37.39375Q419.57812 37.08125 419.35938 36.596874Q419.14062 36.096874 419.14062 34.51875L419.14062 28.55L417.85938 28.55L417.85938 27.175L419.14062 27.175L419.14062 24.6125L420.89062 23.55L420.89062 27.175L422.65625 27.175L422.65625 28.55L420.89062 28.55L420.89062 34.6125Q420.89062 35.3625 420.98438 35.58125Q421.07812 35.784374 421.28125 35.925Q421.5 36.05 421.89062 36.05Q422.17188 36.05 422.65625 35.971874ZM428.65625 35.971874L428.90625 37.534374Q428.17188 37.690624 427.57812 37.690624Q426.625 37.690624 426.09375 37.39375Q425.57812 37.08125 425.35938 36.596874Q425.14062 36.096874 425.14062 34.51875L425.14062 28.55L423.85938 28.55L423.85938 27.175L425.14062 27.175L425.14062 24.6125L426.89062 23.55L426.89062 27.175L428.65625 27.175L428.65625 28.55L426.89062 28.55L426.89062 34.6125Q426.89062 35.3625 426.98438 35.58125Q427.07812 35.784374 427.28125 35.925Q427.5 36.05 427.89062 36.05Q428.17188 36.05 428.65625 35.971874ZM437.92188 34.20625L439.73438 34.440624Q439.3125 36.01875 438.14062 36.909374Q436.98438 37.784374 435.17188 37.784374Q432.90625 37.784374 431.5625 36.39375Q430.23438 34.9875 430.23438 32.45625Q430.23438 29.83125 431.57812 28.39375Q432.92188 26.940624 435.07812 26.940624Q437.15625 26.940624 438.46875 28.3625Q439.79688 29.76875 439.79688 32.346874Q439.79688 32.503124 439.78125 32.815624L432.04688 32.815624Q432.14062 34.51875 433.01562 35.425Q433.89062 36.33125 435.1875 36.33125Q436.15625 36.33125 436.82812 35.83125Q437.51562 35.315624 437.92188 34.20625ZM432.14062 31.3625L437.9375 31.3625Q437.82812 30.065624 437.28125 29.409374Q436.4375 28.39375 435.09375 28.39375Q433.89062 28.39375 433.0625 29.20625Q432.23438 30.003124 432.14062 31.3625ZM441.79688 37.55L441.79688 27.175L443.375 27.175L443.375 28.753124Q443.98438 27.64375 444.5 27.3Q445.01562 26.940624 445.625 26.940624Q446.51562 26.940624 447.4375 27.503124L446.82812 29.14375Q446.1875 28.753124 445.54688 28.753124Q444.96875 28.753124 444.5 29.1125Q444.04688 29.45625 443.84375 30.065624Q443.5625 31.003124 443.5625 32.1125L443.5625 37.55L441.79688 37.55ZM449.96875 41.753124L448.71875 41.753124Q451.625 37.065624 451.625 32.378124Q451.625 30.534374 451.21875 28.7375Q450.875 27.26875 450.28125 25.925Q449.90625 25.034374 448.71875 22.9875L449.96875 22.9875Q451.8125 25.440624 452.6875 27.909374Q453.4375 30.034374 453.4375 32.3625Q453.4375 35.003124 452.42188 37.471874Q451.42188 39.925 449.96875 41.753124Z" fill-rule="nonzero"/></svg>