<?xml version="1.0" encoding="UTF-8" standalone="no"?>
<svg
   xmlns:dc="http://purl.org/dc/elements/1.1/"
   xmlns:cc="http://creativecommons.org/ns#"
   xmlns:rdf="http://www.w3.org/1999/02/22-rdf-syntax-ns#"
   xmlns:svg="http://www.w3.org/2000/svg"
   xmlns="http://www.w3.org/2000/svg"
   xmlns:sodipodi="http://sodipodi.sourceforge.net/DTD/sodipodi-0.dtd"
   xmlns:inkscape="http://www.inkscape.org/namespaces/inkscape"
   x="0px"
   y="0px"
   width="1024"
   height="1024"
   viewbox="0 0 144 144"
   version="1.1"
   id="svg60"
   sodipodi:docname="rust-logo-blk.svg"
   inkscape:version="0.92.4 (unknown)">
  <metadata
     id="metadata66">
    <rdf:RDF>
      <cc:Work
         rdf:about="">
        <dc:format>image/svg+xml</dc:format>
        <dc:type
           rdf:resource="http://purl.org/dc/dcmitype/StillImage" />
        <dc:title></dc:title>
      </cc:Work>
    </rdf:RDF>
  </metadata>
  <defs
     id="defs64" />
  <sodipodi:namedview
     pagecolor="#ffffff"
     bordercolor="#666666"
     borderopacity="1"
     objecttolerance="10"
     gridtolerance="10"
     guidetolerance="10"
     inkscape:pageopacity="0"
     inkscape:pageshadow="2"
     inkscape:window-width="2560"
     inkscape:window-height="1381"
     id="namedview62"
     showgrid="false"
     inkscape:zoom="0.7316591"
     inkscape:cx="69.52349"
     inkscape:cy="290.68108"
     inkscape:window-x="0"
     inkscape:window-y="22"
     inkscape:window-maximized="1"
     inkscape:current-layer="svg60" />
  <path
     d="m 480.18174,134.77063 a 29.261761,29.261976 0 0 1 58.52352,0 29.261761,29.261976 0 0 1 -58.52352,0 M 131.1028,399.70979 a 29.261802,29.262016 0 0 1 58.52355,0 29.261802,29.262016 0 0 1 -58.52355,0 m 698.14848,1.36523 a 29.261729,29.261945 0 0 1 58.52336,0 29.261729,29.261945 0 0 1 -58.52336,0 M 215.8094,441.16423 c 13.46344,-5.97854 19.54539,-21.75814 13.56702,-35.24988 l -12.98331,-29.3561 h 51.05731 V 606.69947 H 164.44119 A 360.26378,360.26644 0 0 1 152.7762,469.17404 Z m 213.57854,5.65851 v -67.83541 h 121.58492 c 6.2798,0 44.34461,7.25898 44.34461,35.72065 0,23.63178 -29.19591,32.10534 -53.20408,32.10534 z M 263.39261,812.06037 a 29.261796,29.26201 0 0 1 58.52357,0 29.261796,29.26201 0 0 1 -58.52357,0 m 433.56878,1.36517 a 29.261808,29.262023 0 0 1 58.52356,0 29.261808,29.262023 0 0 1 -58.52356,0 m 9.04783,-66.35721 c -14.41429,-3.08817 -28.59322,6.08208 -31.68137,20.52475 l -14.68737,68.54143 a 360.26378,360.26644 0 0 1 -300.44117,-1.4404 L 344.5214,766.15255 C 341.43339,751.72877 327.25442,742.5397 312.84949,745.63722 L 252.33951,758.63 a 360.26378,360.26644 0 0 1 -31.28603,-36.87876 h 294.42503 c 3.3329,0 5.55481,-0.60261 5.55481,-3.63423 v -104.1491 c 0,-3.03161 -2.22191,-3.63416 -5.55481,-3.63416 h -86.10945 v -66.01832 h 93.13291 c 8.50178,0 45.45558,2.42909 57.27136,49.66435 3.70004,14.52738 11.82522,61.78147 17.37997,76.91149 5.53611,16.96586 28.07546,50.85997 52.09307,50.85997 h 152.01416 a 360.26378,360.26644 0 0 1 -33.36669,38.62059 z M 869.50023,472.08322 a 360.26378,360.26644 0 0 1 0.76258,62.54422 h -36.96309 c -3.70012,0 -5.18776,2.42897 -5.18776,6.05378 v 16.97531 c 0,39.95742 -22.53,48.64753 -42.27313,50.86004 -18.80175,2.11842 -39.64649,-7.87103 -42.21688,-19.37619 -11.09074,-62.384 -29.57231,-75.70628 -58.75877,-98.72605 36.21936,-23.00088 73.9076,-56.93275 73.9076,-102.35085 0,-49.04294 -33.62092,-79.93367 -56.53692,-95.08252 -32.15222,-21.19324 -67.75016,-25.43944 -77.35334,-25.43944 H 242.60441 A 360.26378,360.26644 0 0 1 444.16003,153.78903 l 45.06015,47.27287 c 10.18692,10.66731 27.05865,11.06272 37.71621,0.86622 l 50.41725,-48.22385 a 360.26378,360.26644 0 0 1 246.63463,175.65644 l -34.51529,77.95649 c -5.95974,13.49176 0.12231,29.27138 13.57637,35.24991 z m 86.08102,1.26162 -1.17691,-12.05119 35.55102,-33.15977 c 7.23069,-6.74121 4.52861,-20.30822 -4.71697,-23.75412 l -45.44598,-16.99418 -3.55887,-11.73113 28.34844,-39.3737 c 5.78083,-8.00278 0.47073,-20.77896 -9.26429,-22.37954 l -47.9222,-7.79572 -5.76208,-10.76135 20.13872,-44.2036 c 4.12378,-9.00077 -3.54001,-20.51535 -13.44467,-20.13877 l -48.63767,1.69473 -7.68254,-9.32095 11.17555,-47.37642 c 2.25956,-9.62222 -7.50378,-19.39497 -17.12583,-17.1354 l -47.36678,11.16624 -9.33957,-7.68274 1.70409,-48.63808 c 0.37657,-9.84809 -11.14729,-17.540159 -20.12923,-13.45405 l -44.19386,20.14816 -10.76136,-5.7714 -7.81441,-47.931954 c -1.5817,-9.716317 -14.3672,-15.026401 -22.36994,-9.264398 L 646.38421,85.784176 634.672,82.234709 617.67801,36.778914 C 614.23213,27.514517 600.65576,24.850053 593.93345,32.04315 L 560.77393,67.622583 548.72274,66.445711 523.11398,25.0666 c -5.17817,-8.379382 -19.04643,-8.379382 -24.20585,0 L 473.29938,66.445711 461.23887,67.622583 428.06994,32.04315 c -6.7223,-7.193097 -20.29868,-4.528633 -23.74456,4.735764 l -16.99417,45.455795 -11.7215,3.549467 -39.39226,-28.348668 c -8.00272,-5.780834 -20.79764,-0.451919 -22.37935,9.264398 l -7.8145,47.931954 -10.76127,5.7714 -44.1938,-20.14816 c -8.98194,-4.104909 -20.50588,3.60596 -20.12929,13.45405 l 1.69475,48.63808 -9.33966,7.68274 -47.36673,-11.16624 c -9.62211,-2.24078 -19.39483,7.51318 -17.13527,17.1354 l 11.15673,47.37642 -7.66384,9.32095 -48.63771,-1.69473 c -9.81047,-0.28243 -17.540069,11.138 -13.45398,20.13877 l 20.14802,44.2036 -5.77144,10.76135 -47.922118,7.79572 c -9.735082,1.5817 -15.007463,14.37676 -9.264327,22.37954 l 28.348477,39.3737 -3.558858,11.73113 -45.455488,16.99418 c -9.226667,3.4459 -11.928762,17.01291 -4.716889,23.75412 l 35.560341,33.15977 -1.176869,12.05119 -41.369389,25.60891 c -8.379323,5.17832 -8.379323,19.04669 0,24.20607 l 41.369389,25.60891 1.176869,12.05127 -35.560341,33.16921 c -7.211873,6.72233 -4.509778,20.28 4.716889,23.74475 l 45.455488,16.99408 3.558858,11.73116 -28.348477,39.38315 c -5.761957,8.02157 -0.461335,20.8072 9.273749,22.37012 l 47.912696,7.79563 5.77144,10.78024 -20.14802,44.18471 c -4.104916,8.98203 3.64351,20.53425 13.45398,20.13883 l 48.61902,-1.70412 7.68253,9.33964 -11.15673,47.386 c -2.25956,9.60326 7.51316,19.35724 17.13527,17.0976 l 47.36673,-11.15679 9.33966,7.66389 -1.69475,48.64748 c -0.37659,9.84814 11.14735,17.54961 20.12929,13.44475 l 44.1938,-20.13884 10.76127,5.77143 7.8145,47.90369 c 1.58171,9.754 14.37663,15.02648 22.37935,9.2833 l 39.37341,-28.36764 11.73114,3.56842 16.99396,45.43689 c 3.44587,9.22681 17.02218,11.94776 23.74454,4.71699 l 33.16897,-35.56056 12.06052,1.20506 25.60865,41.36969 c 5.1595,8.34184 19.02775,8.36054 24.20595,0 l 25.60869,-41.36969 12.05122,-1.20506 33.15952,35.56056 c 6.7223,7.23077 20.29869,4.50982 23.74457,-4.71699 l 16.99395,-45.43689 11.73108,-3.56842 39.38288,28.36764 c 8.00272,5.74318 20.78826,0.45184 22.36997,-9.2833 l 7.81431,-47.90369 10.76139,-5.77143 44.19382,20.13884 c 8.98197,4.10486 20.48705,-3.57782 20.12928,-13.44475 l -1.69465,-48.64748 9.33013,-7.66389 47.36675,11.15679 c 9.62211,2.25964 19.38546,-7.49434 17.12585,-17.0976 l -11.15681,-47.386 7.66388,-9.33964 48.63777,1.70412 c 9.81036,0.39542 17.56827,-11.1568 13.44451,-20.13883 l -20.13855,-44.18471 5.76191,-10.78024 47.9222,-7.79563 c 9.75387,-1.56292 15.04504,-14.34855 9.26433,-22.37012 l -28.34847,-39.38315 3.55888,-11.73116 45.44608,-16.99408 c 9.24533,-3.46475 11.94759,-17.02242 4.71673,-23.74475 L 954.39506,560.82 l 1.17687,-12.05127 41.36934,-25.60891 c 8.37923,-5.15938 8.38863,-19.02775 0.01,-24.20607 z"
     id="path58"
     inkscape:connector-curvature="0"
     style="stroke-width:9.41500664" />
</svg>
